{"glyphs":{"0":{"ha":922,"x_min":-35,"x_max":853,"o":"m 64 85 q 165 700 -35 451 q 540 936 300 867 l 778 799 q 678 200 853 424 q 301 -50 557 43 l 64 85 m 240 143 q 506 314 410 201 q 597 675 624 454 q 586 749 593 710 q 325 572 419 696 q 231 206 217 432 q 240 143 233 175 z "},"1":{"ha":661,"x_min":31,"x_max":661,"o":"m 125 767 q 499 926 264 847 l 661 756 q 182 -40 376 350 l 31 94 q 407 693 185 388 q 196 594 310 654 l 125 767 z "},"2":{"ha":843,"x_min":-62,"x_max":818,"o":"m 138 224 q 589 138 293 169 l 508 -37 q 160 19 256 -7 q 14 65 64 46 l -62 314 q 176 458 24 396 l 431 557 q 628 688 565 614 q 518 732 564 721 q 218 740 379 764 l 300 908 q 396 922 336 922 q 501 915 456 922 q 589 897 546 908 q 740 832 681 872 l 818 617 q 611 422 739 489 q 494 372 554 392 q 374 332 435 351 q 138 224 225 285 z "},"3":{"ha":832,"x_min":-79,"x_max":811,"o":"m 649 176 q 189 -24 465 -24 q -56 17 69 -24 l -79 206 q 153 167 63 167 q 315 186 244 167 q 442 254 385 206 q 186 383 349 317 q 101 413 140 401 l 181 572 q 624 678 444 572 q 275 749 474 758 q 222 746 249 747 l 307 917 q 575 897 457 935 q 731 829 656 871 l 811 600 q 522 461 656 497 q 429 440 476 449 q 585 351 519 397 l 649 176 z "},"4":{"ha":922,"x_min":38,"x_max":896,"o":"m 729 156 q 542 224 665 181 q 418 -40 460 60 l 267 93 q 354 282 313 200 q 67 357 250 311 l 38 558 q 447 944 186 750 l 582 836 q 398 678 482 753 q 233 517 314 604 q 449 450 375 475 q 764 904 588 682 l 896 796 q 629 386 756 610 q 803 319 750 342 l 729 156 z "},"5":{"ha":838,"x_min":-85,"x_max":843,"o":"m 768 614 q 406 740 557 704 l 272 549 q 603 428 436 501 l 669 244 q 452 46 579 110 q 191 -18 325 -18 q -64 19 57 -18 l -85 206 q 308 197 124 132 q 454 301 392 228 q 103 418 285 369 l 93 588 l 289 869 q 490 926 383 910 q 705 858 624 892 q 843 801 786 825 l 768 614 z "},"6":{"ha":847,"x_min":-7,"x_max":754,"o":"m 310 557 q 528 589 418 600 q 560 586 542 588 l 726 446 q 558 117 693 246 q 217 -39 425 -11 l -7 142 q 34 426 1 299 q 136 654 67 554 q 596 956 279 857 l 754 824 q 475 710 581 776 q 310 557 369 644 m 193 139 q 392 222 306 150 q 518 431 483 301 q 494 432 506 432 l 469 432 q 232 392 353 432 q 193 139 201 286 z "},"7":{"ha":769,"x_min":-12,"x_max":808,"o":"m -12 121 q 388 554 167 365 q 549 688 463 618 q 118 735 339 726 l 207 924 q 599 881 440 915 q 726 851 661 868 l 808 679 q 296 168 508 440 q 142 -40 222 74 l -12 121 z "},"8":{"ha":861,"x_min":-37,"x_max":817,"o":"m 251 538 q 213 687 213 628 q 235 792 213 746 q 297 869 257 838 q 513 942 376 931 l 756 804 q 798 713 779 760 q 817 618 817 667 q 660 436 817 486 q 565 417 614 422 q 644 206 644 308 q 538 14 644 93 q 292 -65 436 -60 l 36 78 q -15 173 8 122 q -37 285 -37 224 q -14 391 -37 346 q 50 467 10 436 q 251 538 121 522 m 635 671 q 586 799 635 728 q 457 762 503 796 q 411 669 411 728 q 465 542 411 625 q 635 671 635 565 m 339 408 q 201 369 253 400 q 150 271 150 339 q 224 107 150 203 q 349 135 301 110 q 417 185 396 160 q 438 249 438 211 q 409 326 438 286 q 339 408 381 365 z "},"9":{"ha":844,"x_min":15,"x_max":760,"o":"m 15 81 q 440 333 319 163 q 193 303 333 288 l 26 444 q 194 775 60 647 q 539 929 328 901 l 760 760 q 453 81 760 307 q 176 -53 342 -1 l 15 81 m 235 469 q 258 468 247 468 l 283 468 q 521 503 417 468 q 561 763 549 600 q 286 586 392 744 q 235 469 253 535 z "},"\u0000":{"ha":0,"x_min":0,"x_max":0,"o":""},"\r":{"ha":0,"x_min":0,"x_max":0,"o":""},"\u0001":{"ha":0,"x_min":0,"x_max":0,"o":""},"\u0002":{"ha":0,"x_min":0,"x_max":0,"o":""},"\u0003":{"ha":0,"x_min":0,"x_max":0,"o":""},"\u0004":{"ha":0,"x_min":0,"x_max":0,"o":""},"\u0005":{"ha":0,"x_min":0,"x_max":0,"o":""},"\u0006":{"ha":0,"x_min":0,"x_max":0,"o":""},"\u0007":{"ha":0,"x_min":0,"x_max":0,"o":""},"\b":{"ha":0,"x_min":0,"x_max":0,"o":""},"\t":{"ha":0,"x_min":0,"x_max":0,"o":""},"\n":{"ha":0,"x_min":0,"x_max":0,"o":""},"\u0010":{"ha":0,"x_min":0,"x_max":0,"o":""},"\u0011":{"ha":0,"x_min":0,"x_max":0,"o":""},"\u0012":{"ha":0,"x_min":0,"x_max":0,"o":""},"\u0013":{"ha":0,"x_min":0,"x_max":0,"o":""},"\u0014":{"ha":0,"x_min":0,"x_max":0,"o":""},"\u0015":{"ha":0,"x_min":0,"x_max":0,"o":""},"\u0016":{"ha":0,"x_min":0,"x_max":0,"o":""},"\u0017":{"ha":0,"x_min":0,"x_max":0,"o":""},"\u0018":{"ha":0,"x_min":0,"x_max":0,"o":""},"\u0019":{"ha":0,"x_min":0,"x_max":0,"o":""},"\u001e":{"ha":0,"x_min":0,"x_max":0,"o":""},"\u001f":{"ha":0,"x_min":0,"x_max":0,"o":""}," ":{"ha":503,"x_min":0,"x_max":0,"o":""},"!":{"ha":669,"x_min":0,"x_max":675,"o":"m 138 342 q 282 636 221 532 q 519 997 378 801 l 675 860 q 474 563 533 664 q 293 199 375 394 l 138 342 m 0 13 q 0 41 0 13 q 38 106 0 68 q 129 143 75 143 q 221 106 183 143 q 258 14 258 68 q 179 -106 258 -69 q 38 -78 101 -139 q 0 13 0 -42 z "},"\"":{"ha":699,"x_min":92,"x_max":797,"o":"m 92 646 q 301 1008 226 867 l 460 919 q 323 692 375 769 q 239 565 271 614 l 92 646 m 429 646 q 639 1008 564 867 l 797 919 q 660 692 713 769 q 576 565 608 614 l 429 646 z "},"#":{"ha":956,"x_min":51,"x_max":831,"o":"m 410 260 q 304 303 369 276 l 242 131 l 99 193 l 161 356 l 51 393 l 108 528 l 218 492 l 271 608 q 218 626 244 618 q 165 643 192 635 l 221 781 q 336 740 297 756 l 413 890 l 549 826 q 476 689 500 736 l 585 646 l 658 786 l 793 725 l 721 586 l 831 535 l 768 401 l 657 454 q 631 396 643 425 q 606 338 618 367 l 718 283 l 656 149 l 550 200 q 488 31 500 69 l 344 90 l 410 260 m 519 513 l 411 557 q 385 499 397 528 q 360 440 372 469 l 467 397 l 519 513 z "},"$":{"ha":918,"x_min":-21,"x_max":860,"o":"m 253 40 q 131 -117 203 -22 l 22 -32 q 121 99 79 39 q -21 179 38 142 l 65 349 q 425 185 251 231 q 358 294 393 244 q 292 394 322 344 q 196 615 215 517 q 467 857 333 765 q 564 921 514 889 l 639 874 l 751 1031 l 860 950 l 757 801 l 838 753 q 751 500 821 653 l 582 582 q 612 672 601 626 q 632 761 622 717 q 486 640 549 706 q 432 583 463 617 q 519 401 447 514 q 586 298 550 353 q 657 175 622 243 l 546 -22 q 253 40 393 -10 z "},"%":{"ha":1094,"x_min":56,"x_max":1021,"o":"m 140 743 q 193 872 140 819 q 324 925 246 925 q 451 872 399 925 q 504 743 504 819 q 451 614 504 665 q 322 561 396 561 q 194 613 249 561 q 140 743 140 665 m 56 118 q 439 472 289 346 q 700 679 589 597 q 946 853 811 761 l 1021 758 q 609 458 756 579 q 360 242 463 338 q 143 31 258 147 l 56 118 m 236 743 q 261 682 236 707 q 322 657 286 657 q 382 682 357 657 q 407 743 407 707 q 382 804 407 779 q 322 829 357 829 q 261 804 286 829 q 236 743 236 779 m 628 0 q 592 15 628 0 q 528 99 557 31 q 529 238 500 168 q 628 337 558 307 q 768 337 699 367 q 866 238 838 307 q 866 100 894 168 q 768 1 838 32 q 628 0 699 -31 m 636 107 q 697 82 661 82 q 757 107 732 82 q 782 168 782 132 q 757 229 782 204 q 697 254 732 254 q 636 229 661 254 q 611 168 611 204 q 636 107 611 132 z "},"&":{"ha":1050,"x_min":-107,"x_max":889,"o":"m 636 118 q 739 -33 688 31 l 561 -136 q 444 46 496 -49 q 68 -28 265 -11 l -107 231 q 67 378 -3 332 q 304 513 181 454 q 346 875 293 694 l 581 943 q 819 796 708 881 l 889 624 q 733 507 794 542 q 521 417 626 449 q 564 271 533 349 q 771 372 682 317 l 854 238 q 636 118 758 172 m 515 776 q 500 581 497 685 q 688 675 610 619 q 515 776 592 738 m 118 175 q 368 211 236 182 q 331 333 346 269 q 195 241 244 283 q 118 175 146 199 z "},"'":{"ha":361,"x_min":92,"x_max":460,"o":"m 92 646 q 301 1008 226 867 l 460 919 q 323 692 375 769 q 239 565 271 614 l 92 646 z "},"(":{"ha":599,"x_min":60,"x_max":807,"o":"m 81 -139 q 193 558 60 285 q 706 1050 342 861 l 807 949 q 524 739 636 854 q 253 158 306 515 q 231 -240 228 -19 l 81 -139 z "},")":{"ha":599,"x_min":-276,"x_max":472,"o":"m 450 886 q 338 189 471 463 q -175 -303 189 -114 l -276 -201 q 7 8 -106 -107 q 278 589 225 232 q 300 987 303 767 l 450 886 z "},"*":{"ha":800,"x_min":154,"x_max":756,"o":"m 399 601 q 231 499 304 551 l 154 615 q 317 733 251 692 q 172 861 247 803 l 257 968 q 424 847 369 892 q 503 1031 475 943 l 631 981 q 567 785 599 865 q 756 768 681 768 l 749 632 q 553 629 618 625 q 594 443 568 529 l 464 406 q 399 601 428 499 z "},"+":{"ha":846,"x_min":81,"x_max":668,"o":"m 206 194 q 265 378 228 268 q 81 431 175 407 l 143 589 q 324 535 210 571 q 400 719 372 661 l 554 657 q 482 481 522 585 q 668 406 635 421 l 606 251 q 424 324 531 283 q 365 139 381 196 l 206 194 z "},",":{"ha":510,"x_min":-122,"x_max":260,"o":"m -122 -229 q 79 143 17 -6 l 260 36 q 25 -310 158 -144 l -122 -229 z "},"-":{"ha":821,"x_min":51,"x_max":640,"o":"m 576 251 q 51 431 308 367 l 115 589 q 640 406 382 519 l 576 251 z "},".":{"ha":508,"x_min":0,"x_max":258,"o":"m 0 13 q 0 41 0 13 q 38 106 0 68 q 129 143 75 143 q 221 106 183 143 q 258 14 258 68 q 179 -106 258 -69 q 38 -78 101 -139 q 0 13 0 -42 z "},"/":{"ha":782,"x_min":-26,"x_max":915,"o":"m -26 93 q 611 731 314 458 q 833 932 717 829 l 915 838 q 518 472 650 604 q 67 -7 286 243 l -26 93 z "},":":{"ha":604,"x_min":0,"x_max":483,"o":"m 0 13 q 0 41 0 13 q 38 106 0 68 q 129 143 75 143 q 221 106 183 143 q 258 14 258 68 q 179 -106 258 -69 q 38 -78 101 -139 q 0 13 0 -42 m 225 520 q 225 548 225 520 q 263 613 225 575 q 354 650 300 650 q 446 613 408 650 q 483 521 483 575 q 404 401 483 438 q 263 429 326 368 q 225 520 225 465 z "},";":{"ha":622,"x_min":-107,"x_max":501,"o":"m 243 520 q 243 548 243 520 q 281 613 243 575 q 372 650 318 650 q 464 613 426 650 q 501 521 501 575 q 422 401 501 438 q 281 429 344 368 q 243 520 243 465 m -107 -229 q 94 143 32 -6 l 275 36 q 40 -310 174 -144 l -107 -229 z "},"<":{"ha":846,"x_min":154,"x_max":664,"o":"m 385 56 q 154 408 247 231 l 213 540 q 608 669 344 606 l 664 529 q 349 414 449 465 q 389 340 367 378 q 433 265 411 303 q 518 131 486 176 l 385 56 z "},"=":{"ha":846,"x_min":22,"x_max":722,"o":"m 547 78 q 22 257 279 193 l 86 415 q 611 232 353 346 l 547 78 m 658 376 q 133 556 390 492 l 197 714 q 722 531 464 644 l 658 376 z "},">":{"ha":846,"x_min":50,"x_max":561,"o":"m 329 724 q 560 371 467 549 l 501 239 q 106 110 369 174 l 50 250 q 365 365 265 314 q 325 439 347 401 q 281 514 303 476 q 196 649 228 603 l 329 724 z "},"?":{"ha":819,"x_min":13,"x_max":815,"o":"m 161 893 q 690 974 458 1028 l 815 781 q 694 517 799 622 q 595 435 649 471 q 490 363 542 399 q 395 286 439 328 q 326 188 351 244 l 163 308 q 314 483 203 401 q 410 547 361 517 q 500 611 458 578 q 610 793 593 689 q 217 718 460 814 l 161 893 m 13 13 q 13 41 13 13 q 50 106 13 68 q 142 143 88 143 q 233 106 196 143 q 271 14 271 68 q 192 -106 271 -69 q 50 -78 114 -139 q 13 13 13 -42 z "},"@":{"ha":1581,"x_min":69,"x_max":1426,"o":"m 1318 -39 q 604 -319 971 -319 q 386 -281 485 -319 q 217 -175 288 -242 q 108 -18 147 -108 q 69 183 69 72 q 101 399 69 294 q 188 592 132 504 q 318 751 243 681 q 481 871 393 822 q 861 972 665 972 q 1070 932 974 972 q 1238 821 1167 892 q 1350 653 1308 750 q 1360 250 1426 471 q 967 56 1207 153 q 856 15 901 31 l 764 118 q 547 11 668 49 l 400 147 q 514 494 400 349 q 843 674 636 656 l 921 554 q 982 631 932 569 l 1099 538 q 942 290 1024 440 q 899 203 917 244 q 1081 259 985 224 q 1200 307 1178 294 q 1225 463 1225 382 q 1195 607 1225 543 q 1114 717 1165 671 q 854 818 1006 818 q 636 772 746 818 q 439 642 526 725 q 297 447 351 560 q 242 200 242 333 q 343 -62 242 39 q 613 -167 447 -167 q 930 -105 778 -167 q 1246 79 1082 -43 l 1318 -39 m 575 182 q 814 389 757 232 q 843 506 832 440 q 642 389 713 479 q 575 182 578 304 z "},"A":{"ha":953,"x_min":-114,"x_max":888,"o":"m 281 356 q 38 -40 126 158 l -114 100 q 124 454 -24 269 l 40 501 l 160 651 l 250 601 q 578 901 419 782 l 681 808 q 714 978 701 894 l 888 828 q 556 -65 806 411 l 397 79 q 461 197 442 160 q 281 356 385 282 m 401 497 q 539 374 476 440 q 664 744 624 585 q 401 497 542 649 z "},"B":{"ha":946,"x_min":-99,"x_max":940,"o":"m 571 386 q 703 288 636 343 l 675 113 q 208 -37 486 -8 q 58 -46 129 -46 l -99 96 q 322 783 79 489 q 153 799 215 799 l 213 964 q 533 931 379 957 q 835 842 688 906 l 940 607 q 571 386 792 451 m 342 482 q 550 549 481 515 q 735 665 661 600 q 360 776 589 739 l 483 676 q 342 482 381 543 m 144 143 q 513 231 367 151 q 339 344 464 286 q 272 374 304 360 q 144 143 199 254 z "},"C":{"ha":844,"x_min":-72,"x_max":856,"o":"m 176 172 q 576 276 396 188 l 631 118 q 104 -44 403 -22 l -72 119 q 150 613 -10 392 q 592 971 332 861 l 856 781 q 725 507 819 663 q 675 431 699 464 l 514 519 q 640 793 608 682 q 333 529 467 707 q 176 172 206 356 z "},"D":{"ha":961,"x_min":-79,"x_max":906,"o":"m -79 128 q 75 439 8 325 q 315 783 186 626 q 142 799 208 799 l 201 964 q 522 931 368 957 q 824 842 676 906 l 906 656 q 610 189 839 374 q 99 -36 399 19 l -79 128 m 165 171 q 500 357 354 225 q 703 681 654 496 q 356 776 554 743 l 478 676 q 165 171 283 431 z "},"E":{"ha":843,"x_min":-75,"x_max":918,"o":"m 161 185 q 585 135 350 143 l 528 -44 q 83 11 318 -40 l -75 156 q 214 654 22 379 q 319 796 268 733 q 160 811 222 811 l 225 983 q 918 842 615 971 l 839 639 q 363 789 629 739 l 482 690 q 361 526 415 610 q 635 483 499 496 l 572 307 q 261 371 360 344 q 161 185 208 283 z "},"F":{"ha":811,"x_min":-107,"x_max":893,"o":"m -107 106 q 204 638 3 347 q 315 786 264 724 q 156 801 218 801 l 219 974 q 893 840 590 961 l 814 639 q 358 779 613 728 l 478 681 q 338 488 413 596 q 613 411 422 471 l 544 242 l 375 297 q 240 335 311 317 q 51 -40 121 133 l -107 106 z "},"G":{"ha":926,"x_min":-65,"x_max":901,"o":"m -65 135 q 183 617 -6 390 q 649 965 381 853 l 901 781 q 803 561 872 679 l 632 656 q 679 781 656 703 q 253 374 390 632 q 185 194 207 288 q 474 256 354 219 q 543 406 504 317 l 729 310 q 363 -260 582 21 l 214 -125 q 353 60 315 4 q 81 -1 218 15 l -65 135 z "},"H":{"ha":1014,"x_min":-69,"x_max":1046,"o":"m 474 250 q 286 363 371 317 q 93 -40 168 138 l -69 108 q 110 453 0 263 l 0 506 l 94 668 l 206 615 q 435 953 333 824 l 585 818 q 385 525 528 743 q 565 418 474 475 q 896 928 768 767 l 1046 793 q 731 306 882 572 l 849 218 l 740 60 l 642 135 q 546 -81 582 17 l 385 68 q 474 250 418 143 z "},"I":{"ha":500,"x_min":-87,"x_max":551,"o":"m -87 107 q 410 957 117 567 l 551 813 q 319 454 410 617 q 72 -40 160 165 l -87 107 z "},"J":{"ha":686,"x_min":-108,"x_max":738,"o":"m -32 -40 q -108 304 -92 140 l 75 340 q 122 128 92 235 q 458 761 275 471 q 593 957 524 865 l 738 813 q 381 203 571 582 q 282 -3 324 90 l -32 -40 z "},"K":{"ha":936,"x_min":-107,"x_max":997,"o":"m 481 349 q 692 39 553 222 l 506 -81 q 258 356 374 110 q 46 -40 172 211 l -107 101 q 292 774 106 506 q 425 957 356 865 l 568 810 q 325 464 438 647 q 868 868 646 660 l 997 718 q 775 529 868 594 q 481 349 640 435 z "},"L":{"ha":708,"x_min":-86,"x_max":556,"o":"m 174 194 q 543 142 318 164 l 483 -51 q 210 -19 293 -35 q 81 6 128 -4 l -86 157 q 413 957 83 510 l 556 813 q 174 194 374 563 z "},"M":{"ha":1238,"x_min":-108,"x_max":1189,"o":"m 929 572 q 435 -47 690 258 l 288 81 q 410 671 350 457 q 142 192 260 432 q 40 -19 94 97 l -108 119 q 108 524 21 381 q 429 990 261 771 l 633 811 q 511 301 551 547 q 990 942 732 569 l 1189 771 q 1066 398 1106 501 q 999 225 1026 294 q 864 -92 949 100 l 699 43 q 861 396 814 276 q 929 572 908 515 z "},"N":{"ha":1010,"x_min":-97,"x_max":1046,"o":"m -97 107 q 132 558 -18 297 q 407 978 267 794 l 544 843 q 569 356 547 611 q 904 924 718 668 l 1046 793 q 611 -14 818 475 l 426 -51 q 368 574 382 276 q 64 -40 182 261 l -97 107 z "},"O":{"ha":953,"x_min":-25,"x_max":906,"o":"m 843 536 q 568 746 696 668 q 317 496 426 672 q 189 126 203 314 q 561 422 407 186 q 651 606 613 503 l 843 536 q 600 132 750 275 q 181 -72 438 -24 l -25 117 q 326 806 15 544 q 581 965 435 897 q 906 724 765 871 l 843 536 z "},"P":{"ha":936,"x_min":-92,"x_max":919,"o":"m -92 104 q 75 431 1 310 q 324 782 194 629 q 151 799 228 799 l 211 964 q 665 896 472 956 q 811 842 738 874 l 919 599 q 674 363 824 463 q 351 217 525 264 l 260 347 q 67 -42 151 165 l -92 104 m 281 382 q 721 661 574 483 q 367 775 589 731 l 486 676 q 281 382 375 536 z "},"Q":{"ha":925,"x_min":-28,"x_max":879,"o":"m 281 14 q 571 -108 399 -43 l 482 -282 q 93 -90 257 -197 q -28 -6 36 -53 l 44 131 q 147 158 93 140 l 10 253 q 189 700 29 503 q 592 968 347 897 l 681 828 q 696 950 689 872 l 879 810 q 699 305 843 508 q 281 14 554 101 m 182 171 q 676 804 589 325 q 342 571 469 735 q 182 171 215 407 z "},"R":{"ha":942,"x_min":-92,"x_max":918,"o":"m 469 296 q 669 39 553 163 l 485 -81 q 239 314 357 85 q 65 -40 143 149 l -92 104 q 75 431 1 310 q 324 782 194 629 q 150 799 228 799 l 210 964 q 664 896 471 956 q 810 842 736 874 l 918 603 q 469 296 776 415 m 294 407 q 631 589 483 479 q 717 663 681 625 q 367 774 585 732 l 486 676 q 294 407 375 535 z "},"S":{"ha":850,"x_min":-94,"x_max":863,"o":"m 650 815 q 381 604 501 736 q 425 501 396 556 q 486 383 454 446 q 607 113 571 225 l 490 -74 q 29 117 231 -6 q -94 197 -33 156 l -1 367 q 385 153 210 221 q 285 351 351 235 q 188 526 218 467 q 142 643 158 585 q 361 854 228 750 q 594 1003 483 950 l 863 824 q 742 531 836 706 q 700 460 718 486 l 533 556 q 650 815 589 644 z "},"T":{"ha":800,"x_min":15,"x_max":904,"o":"m 15 108 q 201 480 100 319 q 392 765 301 640 q 99 850 225 818 l 201 1010 q 904 797 507 951 l 808 606 q 433 751 592 696 l 551 646 q 267 158 392 429 q 178 -40 224 68 l 15 108 z "},"U":{"ha":944,"x_min":-69,"x_max":982,"o":"m 379 79 q 106 -35 278 26 l -69 133 q 393 965 103 588 l 543 817 q 250 356 393 635 q 175 194 208 272 q 456 278 342 232 l 456 275 q 829 917 676 731 l 982 768 q 536 -69 765 507 l 379 79 z "},"V":{"ha":910,"x_min":53,"x_max":956,"o":"m 240 182 q 806 917 556 457 l 956 768 q 447 103 753 388 q 256 -53 351 13 l 110 82 q 194 144 164 118 l 53 268 q 281 756 138 540 q 124 674 233 733 l 56 833 q 261 939 194 913 q 378 982 328 965 l 532 818 q 240 182 321 489 z "},"W":{"ha":1353,"x_min":50,"x_max":1347,"o":"m 694 160 q 1196 858 993 404 l 1347 719 q 1068 271 1243 479 q 689 -65 893 63 l 506 97 q 544 231 518 143 q 333 21 436 106 q 258 -40 297 -10 l 50 147 q 281 740 115 472 q 128 661 213 708 l 60 821 q 269 930 201 901 q 386 975 336 958 l 542 819 q 260 196 343 510 q 811 917 551 440 l 956 783 l 931 738 q 788 444 829 550 q 694 160 732 299 z "},"X":{"ha":839,"x_min":-125,"x_max":928,"o":"m 486 419 q 622 -1 531 226 l 426 -53 q 315 311 353 143 q 158 171 232 247 q 4 4 85 94 l -125 156 q 278 510 85 381 q 265 742 265 624 q 144 683 199 713 l 78 836 q 346 964 203 914 l 467 831 q 458 631 456 740 q 803 889 618 771 l 928 722 q 486 419 697 594 z "},"Y":{"ha":786,"x_min":18,"x_max":882,"o":"m 340 490 q 726 921 560 682 l 882 772 q 340 272 624 444 q 190 -57 264 154 l 18 92 q 102 284 76 238 q 156 375 128 331 q 207 1015 124 653 l 393 844 q 340 490 346 660 z "},"Z":{"ha":876,"x_min":-90,"x_max":892,"o":"m 232 186 q 597 110 376 144 l 526 -72 q -90 110 140 -8 l -36 268 q 335 467 135 339 q 643 693 504 574 q 367 778 513 743 q 393 632 386 667 l 210 610 q 165 849 176 726 l 344 974 q 590 904 494 940 q 892 776 731 853 l 835 607 q 232 186 594 374 z "},"[":{"ha":713,"x_min":-11,"x_max":897,"o":"m 171 -36 q 399 -112 307 -87 l 360 -236 q 113 -169 225 -217 l -11 -49 q 240 472 138 286 q 606 1071 408 775 q 812 998 768 1017 q 897 961 856 979 l 853 843 q 689 899 797 865 q 436 478 515 619 q 171 -36 268 179 z "},"\\":{"ha":653,"x_min":64,"x_max":543,"o":"m 429 -61 q 139 760 271 444 q 64 932 106 839 l 179 993 q 483 193 374 532 q 543 6 511 107 l 429 -61 z "},"]":{"ha":713,"x_min":-246,"x_max":663,"o":"m 481 771 q 253 847 344 822 l 292 971 q 539 904 426 951 l 662 783 q 411 263 514 449 q 46 -336 243 -40 q -160 -263 -117 -282 q -246 -226 -204 -244 l -201 -108 q -37 -164 -146 -131 q 215 257 136 115 q 481 771 383 556 z "},"^":{"ha":908,"x_min":60,"x_max":685,"o":"m 464 532 q 142 285 306 425 l 60 419 q 375 692 204 568 q 482 763 429 731 l 618 700 q 685 160 674 394 l 526 126 q 464 532 506 306 z "},"_":{"ha":943,"x_min":-126,"x_max":869,"o":"m 869 -147 l 869 -278 l -126 -278 l -126 -147 l 869 -147 z "},"`":{"ha":493,"x_min":122,"x_max":450,"o":"m 314 756 q 122 1107 233 943 l 279 1193 q 450 815 371 1026 l 314 756 z "},"a":{"ha":856,"x_min":-47,"x_max":893,"o":"m 378 88 q 125 -37 268 1 l -47 122 q -14 338 -47 232 q 85 528 19 443 q 247 669 150 613 q 469 736 343 725 l 561 596 q 632 688 578 622 l 768 571 q 540 188 631 392 l 536 185 q 725 256 617 206 q 863 322 833 307 l 893 182 q 621 28 811 122 q 485 -32 546 -10 l 378 88 m 147 163 q 418 360 296 203 q 472 557 454 439 q 238 431 329 543 q 147 163 147 319 z "},"b":{"ha":844,"x_min":-119,"x_max":881,"o":"m 576 215 q 851 322 665 239 l 881 182 q 610 61 707 94 q 214 -37 469 15 l 69 78 l 33 -37 l -119 82 q 181 717 -50 300 q 346 992 276 889 l 490 885 q 292 567 429 796 q 476 700 374 642 l 693 531 q 576 215 669 365 m 161 150 q 275 163 233 150 q 337 189 317 175 q 385 240 357 203 q 436 325 413 278 q 499 529 489 433 q 332 449 413 499 q 200 344 251 400 q 161 150 165 253 z "},"c":{"ha":738,"x_min":-44,"x_max":775,"o":"m 153 143 q 744 322 493 188 l 775 182 q 300 -14 561 47 q 128 -37 213 -33 l -44 122 q -32 275 -44 221 q 233 644 22 504 q 425 738 328 707 l 647 572 q 608 471 640 540 q 525 311 556 354 l 350 422 q 444 581 425 517 q 228 397 311 524 q 153 143 153 283 z "},"d":{"ha":849,"x_min":-47,"x_max":908,"o":"m 378 88 q 125 -37 268 1 l -47 122 q -14 338 -47 232 q 85 528 19 443 q 247 669 150 613 q 469 736 343 725 l 546 619 q 774 992 654 829 l 908 875 q 624 378 771 700 q 544 188 579 281 q 856 322 693 232 l 886 182 q 581 8 792 111 q 485 -32 521 -19 l 378 88 m 147 163 q 418 360 296 203 q 472 557 454 439 q 238 431 329 543 q 147 163 147 319 z "},"e":{"ha":747,"x_min":-49,"x_max":783,"o":"m 279 268 q 176 278 214 268 q 149 143 154 224 q 610 250 388 157 q 754 322 685 281 l 783 182 q 478 38 654 100 q 124 -37 290 -29 l -49 122 q 56 472 -49 314 q 226 646 131 582 q 408 738 321 710 l 643 543 q 511 333 608 399 q 279 268 414 268 m 235 403 q 375 447 315 403 q 444 594 444 500 q 235 403 304 518 z "},"f":{"ha":768,"x_min":-160,"x_max":804,"o":"m -160 -275 q 29 204 -93 -57 q -104 349 -40 274 l -17 456 l 42 397 q 90 351 67 372 q 292 781 157 585 q 558 1058 413 957 l 793 890 q 662 524 757 692 q 421 238 567 356 q 775 322 601 268 l 804 182 q 258 43 557 103 l 174 97 q 7 -394 72 -150 l -160 -275 m 222 250 q 481 560 364 369 q 617 885 593 746 q 222 250 324 592 z "},"g":{"ha":861,"x_min":-174,"x_max":897,"o":"m -174 -100 q 26 35 -87 -22 l -51 108 q -16 322 -51 218 q 88 509 19 426 q 254 646 156 592 q 479 711 353 700 l 557 581 q 638 688 600 643 l 772 571 q 600 300 692 464 q 551 203 572 250 q 868 322 764 264 l 897 182 q 650 31 783 97 q 565 -7 601 6 l 506 60 q 350 -317 451 -182 q 274 -408 315 -364 q -61 -360 117 -404 q -167 -329 -118 -346 l -174 -100 m 143 143 q 268 192 225 167 q 407 318 349 242 q 468 531 449 410 q 233 408 326 517 q 143 143 143 301 m -33 -201 q 178 -233 103 -233 q 319 7 264 -160 q -33 -201 101 -81 z "},"h":{"ha":874,"x_min":-112,"x_max":910,"o":"m 261 485 q 558 672 390 583 l 726 540 q 565 185 681 343 q 881 322 704 232 l 910 182 q 736 86 853 144 q 460 -37 536 -12 l 288 85 q 427 283 371 185 q 500 454 483 381 q 260 326 318 364 q 157 257 203 289 q 53 -37 89 89 l -112 69 q 89 539 -67 226 q 343 992 231 825 l 485 885 q 261 485 368 696 z "},"i":{"ha":461,"x_min":-112,"x_max":531,"o":"m 338 786 q 306 867 306 819 q 338 947 306 914 q 418 979 371 979 q 498 947 465 979 q 531 867 531 914 q 498 787 531 819 q 418 754 465 754 q 338 786 371 754 m 128 175 q 468 322 269 218 l 497 182 q 172 11 363 94 q 47 -37 108 -17 l -112 110 q 132 574 -44 296 q 235 719 185 657 l 372 618 q 175 283 271 479 q 128 175 147 225 z "},"j":{"ha":461,"x_min":-283,"x_max":531,"o":"m 338 786 q 306 867 306 819 q 338 947 306 914 q 418 979 371 979 q 498 947 465 979 q 531 867 531 914 q 498 787 531 819 q 418 754 465 754 q 338 786 371 754 m 35 11 q -122 -408 -43 -157 l -283 -307 q 158 615 -112 222 q 235 719 199 674 l 372 618 q 115 172 206 389 q 303 242 218 203 q 468 322 389 282 l 497 182 q 194 22 372 100 q 72 -25 133 -4 l 35 11 z "},"k":{"ha":767,"x_min":-119,"x_max":804,"o":"m 804 182 q 417 -37 615 56 l 243 85 q 186 321 200 207 q 46 -37 115 160 l -119 69 q 213 767 1 394 q 349 992 279 883 l 492 885 q 229 418 351 678 q 615 735 415 592 l 757 603 q 363 340 501 440 q 433 178 386 274 q 774 322 610 238 l 804 182 z "},"l":{"ha":683,"x_min":-87,"x_max":719,"o":"m -87 122 q 125 610 -28 338 q 353 931 226 790 q 485 1050 417 1001 l 719 885 q 375 350 672 506 q 161 271 279 300 q 110 131 128 189 q 378 183 282 154 q 690 322 565 239 l 719 182 q 256 -15 515 40 q 85 -37 169 -33 l -87 122 m 242 444 q 443 617 368 504 q 543 881 518 729 q 308 567 433 782 q 242 444 272 506 z "},"m":{"ha":1274,"x_min":-112,"x_max":1310,"o":"m 696 471 q 946 635 808 561 l 1114 503 q 967 185 1069 318 q 1281 322 1101 231 l 1310 182 q 1136 86 1253 144 q 860 -37 936 -12 l 688 85 q 890 421 860 292 q 615 257 744 350 q 447 -37 547 104 l 288 72 q 400 244 354 161 q 490 458 474 381 q 244 317 357 396 q 163 260 206 290 q 53 -37 100 113 l -112 69 q 35 429 -65 229 q 224 732 125 608 l 364 631 q 275 490 314 563 q 546 672 401 594 l 714 540 l 696 471 z "},"n":{"ha":874,"x_min":-112,"x_max":910,"o":"m 271 483 q 558 672 410 593 l 726 540 q 565 185 681 343 q 881 322 704 232 l 910 182 q 736 86 853 144 q 460 -37 536 -12 l 288 85 q 427 283 371 185 q 500 454 483 381 q 161 260 322 371 q 53 -37 97 107 l -112 69 q 35 429 -65 229 q 224 732 125 608 l 364 631 q 271 483 315 565 z "},"o":{"ha":814,"x_min":-47,"x_max":851,"o":"m 501 157 q 150 -37 368 3 l -47 128 q 6 392 -47 261 q 225 657 72 556 q 454 744 331 728 l 675 556 q 594 294 651 406 q 821 322 694 300 l 851 182 q 568 81 671 107 l 501 157 m 139 151 q 403 347 297 188 q 467 478 447 415 q 488 578 486 540 q 274 458 375 563 q 139 151 147 329 z "},"p":{"ha":847,"x_min":-269,"x_max":883,"o":"m 276 506 q 519 672 368 588 l 688 540 q 651 349 676 429 q 569 210 626 268 q 854 322 719 258 l 883 182 q 392 6 707 83 q 196 -37 294 -19 l 67 81 q -111 -394 -53 -189 l -269 -287 q 210 746 -99 226 l 350 643 l 276 506 m 83 118 q 303 169 233 142 q 461 369 403 217 q 488 467 481 417 q 228 306 346 392 q 142 242 188 276 l 83 118 z "},"q":{"ha":856,"x_min":-47,"x_max":893,"o":"m 243 4 q 125 -37 190 -19 l -47 122 q -14 338 -47 232 q 85 528 19 443 q 247 669 150 613 q 469 736 343 725 l 561 596 q 632 688 578 622 l 768 571 q 540 188 631 392 l 536 185 q 725 256 617 206 q 863 322 833 307 l 893 182 q 621 28 811 122 q 485 -32 546 -10 l 442 15 q 286 -394 344 -208 l 128 -287 q 243 4 181 -136 m 147 163 q 418 360 296 203 q 472 557 454 439 q 238 431 329 543 q 147 163 147 319 z "},"r":{"ha":811,"x_min":-94,"x_max":849,"o":"m 53 622 q 219 810 119 713 l 349 710 q 322 617 333 646 q 581 656 501 636 q 718 690 660 675 l 757 525 q 638 496 700 508 q 478 175 542 344 q 818 322 708 254 l 849 182 q 514 11 721 99 q 386 -37 447 -17 l 239 110 q 432 467 329 317 q 260 456 335 458 q 140 247 238 414 l 38 182 l -94 260 q 61 435 21 385 q 131 521 101 485 q 53 622 90 565 z "},"s":{"ha":807,"x_min":-136,"x_max":843,"o":"m 188 -49 q 13 78 88 18 q -136 221 -56 138 l 7 322 q 150 187 104 221 q 232 129 196 153 q 358 156 271 133 l 128 374 q 78 433 96 407 q 260 629 131 528 q 490 756 381 724 l 713 576 q 601 326 689 482 l 453 438 q 504 531 482 481 q 531 597 526 581 q 371 492 453 568 q 318 435 342 464 q 399 350 344 394 q 553 214 490 271 q 814 322 707 267 l 843 182 q 531 35 732 103 q 188 -49 344 -28 z "},"t":{"ha":621,"x_min":-87,"x_max":657,"o":"m 346 614 q 536 644 475 628 l 568 494 q 257 458 446 464 q 131 156 172 292 q 371 212 243 175 q 628 322 499 249 l 657 182 q 368 32 531 94 q 85 -37 208 -29 l -87 122 q 192 696 -6 394 q 322 878 253 790 l 446 764 q 346 614 392 689 z "},"u":{"ha":833,"x_min":-69,"x_max":869,"o":"m 340 104 q 115 -37 253 21 l -69 122 q 28 432 -50 279 q 228 750 106 585 l 371 640 q 125 163 176 378 q 151 170 126 163 q 214 200 175 178 q 396 360 313 256 q 582 682 493 557 l 731 567 q 518 188 600 375 l 513 185 q 706 257 601 208 q 840 322 811 306 l 869 182 q 599 28 783 119 q 463 -32 524 -10 l 340 104 z "},"v":{"ha":829,"x_min":-65,"x_max":867,"o":"m 386 143 q 119 -37 251 24 l -65 122 q 3 375 -40 267 q 176 743 71 551 l 329 639 q 215 408 249 496 q 143 175 165 276 q 478 531 274 235 q 593 713 539 618 l 753 608 q 497 256 631 406 q 688 285 579 260 q 836 322 796 310 l 867 182 q 558 64 747 118 q 471 43 507 50 l 386 143 z "},"w":{"ha":1267,"x_min":-57,"x_max":1304,"o":"m 389 165 q 117 -25 267 46 l -57 122 q 13 378 -28 271 q 185 743 78 549 l 338 639 q 224 408 257 496 q 151 175 174 276 q 381 381 243 217 q 626 731 519 544 l 779 626 q 606 268 647 394 q 581 175 590 219 q 917 531 711 235 q 1031 713 976 618 l 1190 608 q 935 256 1068 406 q 1125 285 1017 260 q 1274 322 1233 310 l 1304 182 q 996 64 1185 118 q 908 43 944 50 q 867 89 907 43 q 822 142 828 135 q 557 -37 699 29 l 376 97 l 389 165 z "},"x":{"ha":807,"x_min":-94,"x_max":843,"o":"m 61 -12 q -94 219 -15 81 l 7 322 q 60 240 36 271 q 174 346 125 308 q 106 661 125 490 l 279 742 q 333 475 301 576 q 472 600 403 540 q 628 719 540 660 l 785 613 q 394 303 625 499 q 447 190 418 242 q 691 270 618 240 q 814 322 764 300 l 843 182 q 356 -37 607 51 q 243 175 286 81 q 154 85 196 131 q 61 -12 113 40 z "},"y":{"ha":842,"x_min":-203,"x_max":879,"o":"m 533 204 q 849 322 758 269 l 879 182 q 631 31 768 99 q 546 -7 582 6 l 478 68 q 386 -214 439 -108 q 244 -408 336 -311 q -90 -360 92 -404 q -194 -329 -147 -346 l -203 -100 q 4 39 -110 -18 l -76 97 q 114 569 -64 281 q 236 750 169 660 l 381 640 q 118 138 138 299 q 236 172 192 149 q 378 310 325 219 q 592 682 497 549 l 739 567 q 533 204 603 358 m -62 -201 q 149 -233 65 -231 q 290 7 239 -157 q -62 -201 64 -85 z "},"z":{"ha":708,"x_min":-119,"x_max":744,"o":"m 78 163 q 715 322 440 185 l 744 182 q 417 36 614 100 q 47 -37 207 -29 l -119 117 q -74 279 -94 232 q 356 518 193 421 q 31 531 253 557 l 142 718 q 214 725 174 725 q 366 692 297 725 q 506 611 435 660 l 582 663 l 657 518 q 326 303 475 389 q 78 163 178 217 z "},"{":{"ha":681,"x_min":86,"x_max":846,"o":"m 142 -231 q 133 142 86 -54 q 228 385 163 264 q 164 481 247 424 q 107 517 139 497 l 165 631 q 300 614 249 611 q 363 636 351 617 q 424 746 389 683 q 507 869 458 808 q 783 1061 621 1013 l 846 939 q 567 653 683 867 q 497 532 533 593 q 324 501 422 494 q 369 304 374 394 q 276 -201 247 88 l 142 -231 z "},"|":{"ha":697,"x_min":279,"x_max":375,"o":"m 279 1015 l 375 928 l 375 -257 l 279 -162 l 279 1015 z "},"}":{"ha":681,"x_min":-214,"x_max":547,"o":"m 490 978 q 499 606 546 801 q 404 363 469 483 q 468 267 385 324 q 525 231 493 250 l 467 117 q 332 133 383 136 q 269 111 281 131 q 208 1 243 64 q 125 -122 174 -61 q -151 -314 11 -265 l -214 -192 q 65 94 -51 -119 q 135 215 99 154 q 308 246 210 253 q 263 443 258 353 q 356 949 385 660 l 490 978 z "},"~":{"ha":861,"x_min":81,"x_max":678,"o":"m 131 575 q 248 589 203 589 q 337 563 293 589 q 422 506 381 538 q 508 449 464 475 q 597 424 553 424 q 678 428 642 424 l 628 271 q 422 283 493 239 q 339 340 379 308 q 253 397 299 371 q 163 422 208 422 q 81 418 118 422 l 131 575 z "},"":{"ha":0,"x_min":0,"x_max":0,"o":""}," ":{"ha":503,"x_min":0,"x_max":0,"o":"z "},"¡":{"ha":669,"x_min":-1,"x_max":739,"o":"m 610 735 q 518 772 558 735 q 481 864 481 810 q 518 956 481 918 q 610 993 556 993 q 701 956 664 993 q 739 864 739 918 q 660 744 739 781 q 610 735 636 735 m -1 17 q 267 503 115 261 q 379 679 318 585 l 531 539 q 153 -119 325 240 l -1 17 z "},"¢":{"ha":844,"x_min":1,"x_max":758,"o":"m 1 22 l 101 163 l 58 199 q 300 740 32 532 q 483 846 390 810 l 556 800 l 663 942 l 758 868 l 661 733 l 726 693 q 646 468 710 604 l 471 556 q 528 678 510 615 q 402 601 461 650 q 308 488 343 551 q 256 232 246 368 q 542 306 428 264 l 590 147 q 247 43 425 72 l 199 82 l 97 -51 l 1 22 z "},"£":{"ha":915,"x_min":-67,"x_max":867,"o":"m 274 194 q 615 114 421 149 l 561 -57 q 267 3 371 -29 q -67 126 101 53 l 13 294 q 232 208 124 246 l 104 303 q 190 469 150 401 q 110 514 149 492 l 176 635 l 261 589 q 285 628 272 608 q 310 667 297 647 q 593 931 426 844 l 867 756 q 768 506 828 608 l 606 593 q 689 786 663 682 q 489 581 589 711 q 438 506 475 561 q 606 440 510 475 l 554 313 q 369 385 486 335 q 274 194 363 371 z "},"¤":{"ha":949,"x_min":18,"x_max":838,"o":"m 225 249 q 93 181 144 211 l 18 301 q 153 386 88 350 q 147 443 147 414 q 228 646 147 563 q 161 778 203 704 l 283 853 q 365 722 319 799 q 435 731 399 731 q 635 647 554 731 q 764 715 703 678 l 838 592 q 708 510 764 543 q 717 443 717 478 q 629 239 717 324 q 699 108 667 157 l 576 35 q 490 168 528 101 q 435 163 467 163 q 225 249 308 163 m 297 443 q 336 350 297 389 q 432 311 375 311 q 525 350 486 311 q 563 444 563 388 q 525 538 563 500 q 431 576 488 576 q 336 538 375 576 q 297 443 297 500 z "},"¥":{"ha":915,"x_min":-7,"x_max":904,"o":"m 404 22 q 299 74 358 42 q 249 -58 272 11 l 78 78 l 122 178 q -7 268 44 228 l 53 354 q 169 274 99 318 q 199 329 181 297 q 85 410 132 374 l 144 494 l 243 426 q 308 947 250 736 l 468 794 q 424 510 436 672 q 568 624 515 576 q 765 814 660 706 l 904 688 q 706 501 779 558 q 432 311 572 396 q 547 251 496 275 l 496 163 q 368 226 443 183 l 340 171 q 456 110 400 135 l 404 22 z "},"¦":{"ha":697,"x_min":279,"x_max":375,"o":"m 279 561 l 279 1015 l 375 928 l 375 468 l 279 561 m 279 292 l 375 204 l 375 -257 l 279 -162 l 279 292 z "},"§":{"ha":981,"x_min":-19,"x_max":889,"o":"m 831 415 q 551 126 728 250 l 589 18 q 384 -177 517 -99 q 81 -293 251 -256 l -19 -125 q 364 47 271 -64 l 71 225 q 1 276 28 253 q 150 499 51 399 q 339 635 240 590 q 261 693 290 665 q 488 948 353 853 q 776 1081 624 1043 l 889 928 q 675 856 765 908 q 531 728 585 803 l 778 582 l 831 415 m 636 457 q 496 542 565 503 q 366 459 429 517 q 263 332 303 401 q 406 233 286 318 q 636 457 550 325 z "},"¨":{"ha":493,"x_min":100,"x_max":676,"o":"m 210 868 q 132 901 164 868 q 100 979 100 933 q 132 1057 100 1025 q 210 1089 164 1089 q 288 1057 256 1089 q 319 979 319 1025 q 288 901 319 933 q 210 868 256 868 m 488 767 q 456 844 456 799 q 488 923 456 890 q 567 956 521 956 q 644 923 613 956 q 676 844 676 890 q 644 767 676 799 q 567 735 613 735 q 488 767 521 735 z "},"©":{"ha":1669,"x_min":118,"x_max":1476,"o":"m 264 -61 q 118 342 118 103 q 155 573 118 458 q 264 783 192 688 l 428 722 q 329 538 365 643 q 293 338 293 432 q 317 170 293 244 q 392 39 342 96 q 708 -85 504 -85 q 923 -37 817 -85 q 1115 94 1029 11 q 1253 290 1200 178 q 1306 533 1306 403 q 1188 808 1306 703 q 656 885 1007 971 q 431 806 535 856 l 382 942 q 754 1058 538 1029 q 1128 1028 964 1088 q 1433 751 1347 949 q 1476 540 1476 654 q 1410 230 1476 372 q 1236 -17 1344 88 q 990 -180 1128 -121 q 705 -239 851 -239 q 448 -190 558 -239 q 264 -61 338 -142 m 622 238 q 994 306 810 260 l 1025 163 q 828 104 903 119 q 558 63 707 79 l 421 193 q 742 724 497 518 q 931 839 825 794 l 1129 694 q 1042 499 1107 608 q 1006 443 1024 468 l 876 518 q 938 640 926 608 q 957 696 950 671 q 733 503 831 635 q 622 238 646 379 z "},"ª":{"ha":850,"x_min":143,"x_max":829,"o":"m 463 603 q 275 511 383 544 l 143 632 q 244 942 143 810 q 538 1099 354 1083 l 606 994 q 661 1061 614 1007 l 764 979 q 586 682 658 839 q 722 734 657 704 q 806 775 786 764 l 829 658 q 665 563 760 608 q 546 510 571 518 l 463 603 m 299 664 q 467 764 411 693 q 538 950 514 828 q 314 763 361 914 q 299 664 300 715 z "},"«":{"ha":1035,"x_min":89,"x_max":943,"o":"m 708 125 q 489 428 611 235 l 568 567 q 874 701 697 643 l 943 581 q 681 438 778 500 q 817 207 742 321 l 708 125 m 308 161 q 89 464 211 271 l 168 603 q 474 738 297 679 l 543 617 q 281 474 378 536 q 417 243 342 357 l 308 161 z "},"¬":{"ha":846,"x_min":76,"x_max":665,"o":"m 665 406 q 535 92 579 190 l 374 163 q 446 314 414 240 q 76 431 257 386 l 140 589 q 665 406 407 519 z "},"­":{"ha":1157,"x_min":0,"x_max":0,"o":""},"®":{"ha":1671,"x_min":118,"x_max":1476,"o":"m 264 -61 q 118 342 118 103 q 155 573 118 458 q 264 783 192 688 l 428 722 q 329 538 365 643 q 293 338 293 432 q 317 170 293 244 q 392 39 342 96 q 708 -85 504 -85 q 923 -37 817 -85 q 1115 94 1029 11 q 1253 290 1200 178 q 1306 533 1306 403 q 1188 808 1306 703 q 656 885 1007 971 q 431 806 535 856 l 382 942 q 754 1058 538 1029 q 1128 1028 964 1088 q 1433 751 1347 949 q 1476 540 1476 654 q 1410 230 1476 372 q 1236 -17 1344 88 q 990 -180 1128 -121 q 705 -239 851 -239 q 448 -190 558 -239 q 264 -61 338 -142 m 1169 529 q 853 306 1072 394 l 976 126 l 817 32 l 661 314 q 528 43 589 188 l 399 161 q 519 399 468 314 q 696 651 610 549 q 589 661 628 661 l 638 801 q 1090 708 911 789 l 1169 529 m 708 394 q 936 519 832 444 q 996 568 969 543 q 750 643 894 617 l 836 572 q 708 394 774 492 z "},"¯":{"ha":493,"x_min":85,"x_max":603,"o":"m 538 844 q 85 1000 325 940 l 143 1158 q 603 1000 371 1101 l 538 844 z "},"°":{"ha":515,"x_min":131,"x_max":456,"o":"m 293 622 q 259 622 293 622 q 178 669 225 622 q 131 785 131 717 q 177 901 131 854 q 294 947 224 947 q 408 900 361 947 q 456 783 456 853 q 408 669 456 717 q 293 622 361 622 m 226 784 q 226 770 226 784 q 246 738 226 757 q 292 719 265 719 q 338 738 319 719 q 357 784 357 757 q 338 831 357 811 q 292 850 319 850 q 246 831 265 850 q 226 784 226 811 z "},"±":{"ha":846,"x_min":-32,"x_max":699,"o":"m 236 269 q 296 453 258 343 q 111 506 206 482 l 174 664 q 354 610 240 646 q 431 794 403 736 l 585 732 q 513 556 553 660 q 699 481 665 496 l 636 326 q 454 399 561 358 q 396 214 411 271 l 236 269 m 493 -99 q -32 81 225 17 l 32 239 q 557 56 299 169 l 493 -99 z "},"²":{"ha":603,"x_min":89,"x_max":650,"o":"m 469 956 q 254 975 368 985 l 315 1101 q 604 1056 471 1121 l 650 910 q 474 768 576 818 q 389 730 431 747 q 304 686 347 713 q 524 640 393 657 l 456 497 q 203 554 344 508 q 133 579 164 567 l 89 729 q 296 856 164 792 q 390 903 346 881 q 469 956 435 926 z "},"³":{"ha":607,"x_min":63,"x_max":650,"o":"m 544 633 q 165 504 394 471 q 90 522 128 510 l 63 661 q 369 689 268 607 q 179 775 282 743 l 240 883 q 483 949 392 883 q 253 975 381 986 l 315 1103 q 344 1106 329 1106 l 376 1106 q 607 1050 508 1106 l 650 900 q 439 785 547 814 q 507 751 467 774 l 544 633 z "},"´":{"ha":493,"x_min":124,"x_max":556,"o":"m 556 1004 q 228 749 432 889 l 124 856 q 421 1135 275 972 l 556 1004 z "},"µ":{"ha":960,"x_min":-132,"x_max":785,"o":"m 554 185 q 746 257 631 206 l 785 104 q 506 -32 600 -3 l 394 92 q 280 4 326 29 q 194 -37 233 -21 l 114 31 q 18 -285 65 -111 l -132 -174 q 17 258 -54 94 q 269 750 131 526 l 414 640 q 164 164 260 401 q 439 360 315 203 q 625 682 536 557 l 772 567 q 560 188 643 372 l 554 185 z "},"¶":{"ha":1067,"x_min":131,"x_max":1088,"o":"m 1088 647 q 903 728 1011 683 q 617 264 756 506 q 358 -257 479 22 l 200 -115 q 431 333 300 103 q 131 825 224 535 l 325 1038 q 546 1035 431 1049 q 742 997 661 1021 q 1082 839 893 953 l 1088 647 m 714 796 q 390 843 550 843 l 367 843 q 342 842 354 843 q 536 511 404 663 q 714 796 661 715 z "},"·":{"ha":528,"x_min":81,"x_max":339,"o":"m 81 426 q 81 453 81 426 q 118 518 81 481 q 210 556 156 556 q 301 518 264 556 q 339 426 339 481 q 260 307 339 343 q 118 335 182 274 q 81 426 81 371 z "},"¸":{"ha":493,"x_min":-104,"x_max":308,"o":"m 113 -144 q 46 -81 85 -111 l 165 81 l 301 86 l 206 -53 q 308 -144 240 -79 l 260 -249 q -85 -297 121 -290 l -104 -185 q 113 -144 19 -172 z "},"¹":{"ha":465,"x_min":117,"x_max":535,"o":"m 144 982 q 419 1104 288 1057 l 535 985 q 247 507 372 754 l 117 624 q 301 915 188 751 q 192 863 244 890 l 144 982 z "},"º":{"ha":721,"x_min":168,"x_max":726,"o":"m 168 635 q 211 836 168 728 q 383 1036 265 967 q 556 1099 468 1085 l 726 956 q 589 649 699 769 q 318 511 489 543 l 168 635 m 326 667 q 479 753 426 690 q 561 904 533 818 q 569 958 569 933 q 464 917 521 956 q 381 829 414 882 q 326 667 333 760 z "},"»":{"ha":1085,"x_min":88,"x_max":943,"o":"m 322 713 q 543 419 449 569 l 464 281 q 157 136 315 194 l 88 257 q 349 408 242 335 q 215 631 311 481 l 322 713 m 722 676 q 943 383 849 533 l 864 244 q 557 100 715 158 l 488 221 q 749 372 642 299 q 615 594 711 444 l 722 676 z "},"¼":{"ha":1256,"x_min":35,"x_max":1113,"o":"m 132 982 q 407 1104 275 1057 l 522 985 q 235 507 360 754 l 104 624 q 289 915 175 751 q 179 863 232 890 l 132 982 m 35 93 q 672 731 375 458 q 894 932 778 829 l 976 838 q 579 472 711 604 q 128 -7 347 243 l 35 93 m 728 233 q 833 210 828 211 q 1007 457 908 332 l 1113 368 q 979 169 1047 282 l 1064 140 l 1006 17 q 958 31 982 24 q 910 44 935 38 q 825 -133 871 -29 l 708 -29 q 760 83 733 32 q 572 121 703 96 l 556 243 q 814 511 660 392 l 919 421 q 728 233 810 331 z "},"½":{"ha":1243,"x_min":35,"x_max":1100,"o":"m 35 93 q 672 731 375 458 q 894 932 778 829 l 976 838 q 579 472 711 604 q 128 -7 347 243 l 35 93 m 133 982 q 408 1104 276 1057 l 524 985 q 236 507 361 754 l 106 624 q 290 915 176 751 q 181 863 233 890 l 133 982 m 919 332 q 704 351 818 361 l 765 478 q 1054 432 921 497 l 1100 286 q 924 144 1026 194 q 839 106 881 124 q 754 63 797 89 q 974 17 843 33 l 906 -126 q 653 -69 794 -115 q 583 -44 614 -57 l 539 106 q 746 232 614 168 q 840 280 796 257 q 919 332 885 303 z "},"¾":{"ha":1425,"x_min":88,"x_max":1281,"o":"m 569 633 q 190 504 419 471 q 115 522 153 510 l 88 661 q 394 689 293 607 q 204 775 307 743 l 265 883 q 508 949 417 883 q 278 975 406 986 l 340 1103 q 369 1106 354 1106 l 401 1106 q 632 1050 533 1106 l 675 900 q 464 785 572 814 q 532 751 492 774 l 569 633 m 197 93 q 833 731 538 458 q 1057 932 940 829 l 1139 838 q 742 472 874 604 q 290 -7 510 243 l 197 93 m 897 232 q 1003 210 947 224 q 1176 457 1078 332 l 1281 368 q 1147 169 1215 282 l 1232 140 l 1175 17 l 1078 46 q 993 -133 1042 -22 l 878 -29 q 929 83 903 32 q 742 121 872 96 l 724 243 q 982 511 833 396 l 1089 421 q 897 232 983 335 z "},"¿":{"ha":819,"x_min":-11,"x_max":793,"o":"m 643 11 q 114 -69 346 -124 l -11 124 q 110 388 6 282 q 209 469 156 433 q 314 541 263 506 q 409 618 365 576 q 478 717 453 660 l 642 596 q 490 421 601 503 q 394 357 443 388 q 304 293 346 326 q 194 111 211 215 q 588 186 344 90 l 643 11 m 792 891 q 792 864 792 891 q 754 799 792 836 q 663 761 717 761 q 571 799 608 761 q 533 890 533 836 q 613 1010 533 974 q 754 982 690 1043 q 792 891 792 946 z "},"À":{"ha":953,"x_min":-114,"x_max":974,"o":"m 281 356 q 38 -40 126 158 l -114 100 q 124 454 -24 269 l 40 501 l 160 651 l 250 601 q 578 901 419 782 l 681 808 q 714 978 701 894 l 888 828 q 556 -65 806 411 l 397 79 q 461 197 442 160 q 281 356 385 282 m 401 497 q 539 374 476 440 q 664 744 624 585 q 401 497 542 649 m 874 925 q 567 1193 742 1064 l 678 1319 q 974 1029 858 1163 l 874 925 z "},"Á":{"ha":953,"x_min":-114,"x_max":1085,"o":"m 281 356 q 38 -40 126 158 l -114 100 q 124 454 -24 269 l 40 501 l 160 651 l 250 601 q 578 901 419 782 l 681 808 q 714 978 701 894 l 888 828 q 556 -65 806 411 l 397 79 q 461 197 442 160 q 281 356 385 282 m 401 497 q 539 374 476 440 q 664 744 624 585 q 401 497 542 649 m 1085 1151 q 689 1011 894 1065 l 635 1146 q 898 1256 829 1222 q 1014 1317 967 1290 l 1085 1151 z "},"Â":{"ha":953,"x_min":-114,"x_max":1106,"o":"m 281 356 q 38 -40 126 158 l -114 100 q 124 454 -24 269 l 40 501 l 160 651 l 250 601 q 578 901 419 782 l 681 808 q 714 978 701 894 l 888 828 q 556 -65 806 411 l 397 79 q 461 197 442 160 q 281 356 385 282 m 401 497 q 539 374 476 440 q 664 744 624 585 q 401 497 542 649 m 968 872 q 850 1117 911 1010 q 678 1060 733 1085 q 582 1018 622 1036 l 515 1142 q 712 1236 640 1210 q 836 1279 783 1263 l 1001 1194 q 1106 907 1058 1081 l 968 872 z "},"Ã":{"ha":953,"x_min":-114,"x_max":1139,"o":"m 281 356 q 38 -40 126 158 l -114 100 q 124 454 -24 269 l 40 501 l 160 651 l 250 601 q 578 901 419 782 l 681 808 q 714 978 701 894 l 888 828 q 556 -65 806 411 l 397 79 q 461 197 442 160 q 281 356 385 282 m 401 497 q 539 374 476 440 q 664 744 624 585 q 401 497 542 649 m 946 931 q 880 965 913 940 q 817 1016 847 989 q 759 1066 786 1043 q 710 1094 732 1089 l 597 1088 l 583 1218 q 699 1245 642 1238 q 775 1253 756 1253 q 904 1165 822 1239 q 963 1116 935 1139 q 1013 1088 990 1093 l 1124 1094 l 1139 965 q 1022 938 1081 946 q 946 931 964 931 z "},"Ä":{"ha":953,"x_min":-114,"x_max":1124,"o":"m 281 356 q 38 -40 126 158 l -114 100 q 124 454 -24 269 l 40 501 l 160 651 l 250 601 q 578 901 419 782 l 681 808 q 714 978 701 894 l 888 828 q 556 -65 806 411 l 397 79 q 461 197 442 160 q 281 356 385 282 m 401 497 q 539 374 476 440 q 664 744 624 585 q 401 497 542 649 m 579 1068 q 547 1146 547 1100 q 580 1224 547 1192 q 658 1257 613 1257 q 736 1224 704 1257 q 768 1146 768 1192 q 736 1068 768 1100 q 658 1036 704 1036 q 579 1068 613 1036 m 936 935 q 904 1013 904 967 q 936 1090 904 1058 q 1014 1122 968 1122 q 1092 1090 1060 1122 q 1124 1013 1124 1058 q 1092 935 1124 967 q 1014 903 1060 903 q 936 935 968 903 z "},"Å":{"ha":953,"x_min":-114,"x_max":1075,"o":"m 281 356 q 38 -40 126 158 l -114 100 q 124 454 -24 269 l 40 501 l 160 651 l 250 601 q 578 901 419 782 l 681 808 q 714 978 701 894 l 888 828 q 556 -65 806 411 l 397 79 q 461 197 442 160 q 281 356 385 282 m 401 497 q 539 374 476 440 q 664 744 624 585 q 401 497 542 649 m 914 964 q 879 964 914 964 q 797 1011 844 964 q 750 1127 750 1058 q 797 1242 750 1196 q 914 1289 843 1289 q 1028 1242 983 1289 q 1075 1125 1075 1193 q 1028 1011 1075 1060 q 914 964 983 964 m 846 1126 q 846 1112 846 1126 q 865 1080 846 1099 q 912 1061 885 1061 q 958 1080 939 1061 q 978 1126 978 1099 q 958 1172 978 1153 q 912 1192 939 1192 q 865 1172 885 1192 q 846 1126 846 1153 z "},"Æ":{"ha":1321,"x_min":-114,"x_max":1315,"o":"m 276 339 q 49 -40 133 146 l -114 100 q 114 444 -18 275 l 14 501 l 133 651 q 236 592 203 613 q 551 901 401 781 l 656 806 q 685 965 676 890 l 822 843 l 838 929 q 1315 796 1057 901 l 1240 619 q 839 740 1043 703 q 786 546 817 643 q 1099 476 951 503 l 1038 306 q 728 382 878 338 q 649 203 692 294 q 1097 128 860 150 l 1035 -50 q 567 33 788 -26 l 519 -57 l 363 86 q 428 206 419 190 q 276 339 356 282 m 389 478 q 501 364 447 426 q 635 729 590 568 q 389 478 500 606 z "},"Ç":{"ha":844,"x_min":-164,"x_max":856,"o":"m 53 -169 q -14 -106 25 -136 l 61 -4 l -72 119 q 150 613 -10 392 q 592 971 332 861 l 856 781 q 725 507 819 663 q 675 431 699 464 l 514 519 q 640 793 608 682 q 333 529 467 707 q 176 172 206 356 q 576 276 396 188 l 631 118 q 226 -29 456 10 q 174 -37 199 -33 l 146 -78 q 249 -169 181 -104 l 200 -274 q -144 -322 61 -315 l -164 -210 q 53 -169 -40 -197 z "},"È":{"ha":843,"x_min":-75,"x_max":918,"o":"m 161 185 q 585 135 350 143 l 528 -44 q 83 11 318 -40 l -75 156 q 214 654 22 379 q 319 796 268 733 q 160 811 222 811 l 225 983 q 918 842 615 971 l 839 639 q 363 789 629 739 l 482 690 q 361 526 415 610 q 635 483 499 496 l 572 307 q 261 371 360 344 q 161 185 208 283 m 760 933 q 453 1201 628 1072 l 564 1328 q 860 1038 744 1171 l 760 933 z "},"É":{"ha":843,"x_min":-75,"x_max":1008,"o":"m 161 185 q 585 135 350 143 l 528 -44 q 83 11 318 -40 l -75 156 q 214 654 22 379 q 319 796 268 733 q 160 811 222 811 l 225 983 q 918 842 615 971 l 839 639 q 363 789 629 739 l 482 690 q 361 526 415 610 q 635 483 499 496 l 572 307 q 261 371 360 344 q 161 185 208 283 m 1008 1136 q 613 996 818 1050 l 558 1131 q 822 1241 753 1207 q 938 1301 890 1275 l 1008 1136 z "},"Ê":{"ha":843,"x_min":-75,"x_max":976,"o":"m 161 185 q 585 135 350 143 l 528 -44 q 83 11 318 -40 l -75 156 q 214 654 22 379 q 319 796 268 733 q 160 811 222 811 l 225 983 q 918 842 615 971 l 839 639 q 363 789 629 739 l 482 690 q 361 526 415 610 q 635 483 499 496 l 572 307 q 261 371 360 344 q 161 185 208 283 m 839 921 q 721 1165 782 1058 q 549 1109 604 1133 q 453 1067 493 1085 l 386 1190 q 583 1285 511 1258 q 707 1328 654 1311 l 872 1243 q 976 956 929 1129 l 839 921 z "},"Ë":{"ha":843,"x_min":-75,"x_max":1011,"o":"m 161 185 q 585 135 350 143 l 528 -44 q 83 11 318 -40 l -75 156 q 214 654 22 379 q 319 796 268 733 q 160 811 222 811 l 225 983 q 918 842 615 971 l 839 639 q 363 789 629 739 l 482 690 q 361 526 415 610 q 635 483 499 496 l 572 307 q 261 371 360 344 q 161 185 208 283 m 467 1093 q 435 1171 435 1125 q 467 1249 435 1217 q 546 1282 500 1282 q 624 1249 592 1282 q 656 1171 656 1217 q 624 1093 656 1125 q 546 1061 592 1061 q 467 1093 500 1061 m 824 960 q 792 1038 792 992 q 824 1115 792 1083 q 901 1147 856 1147 q 979 1115 947 1147 q 1011 1038 1011 1083 q 979 960 1011 992 q 901 928 947 928 q 824 960 856 928 z "},"Ì":{"ha":500,"x_min":-87,"x_max":725,"o":"m -87 107 q 410 957 117 567 l 551 813 q 319 454 410 617 q 72 -40 160 165 l -87 107 m 625 933 q 318 1201 493 1072 l 429 1328 q 725 1038 610 1171 l 625 933 z "},"Í":{"ha":500,"x_min":-87,"x_max":979,"o":"m -87 107 q 410 957 117 567 l 551 813 q 319 454 410 617 q 72 -40 160 165 l -87 107 m 979 1124 q 583 983 789 1038 l 529 1118 q 792 1228 724 1194 q 908 1289 861 1263 l 979 1124 z "},"Î":{"ha":500,"x_min":-87,"x_max":842,"o":"m -87 107 q 410 957 117 567 l 551 813 q 319 454 410 617 q 72 -40 160 165 l -87 107 m 704 872 q 586 1117 647 1010 q 414 1060 469 1085 q 318 1018 358 1036 l 251 1142 q 448 1236 376 1210 q 572 1279 519 1263 l 738 1194 q 842 907 794 1081 l 704 872 z "},"Ï":{"ha":500,"x_min":-87,"x_max":844,"o":"m -87 107 q 410 957 117 567 l 551 813 q 319 454 410 617 q 72 -40 160 165 l -87 107 m 300 1068 q 268 1146 268 1100 q 301 1224 268 1192 q 379 1257 333 1257 q 457 1224 425 1257 q 489 1146 489 1192 q 457 1068 489 1100 q 379 1036 425 1036 q 300 1068 333 1036 m 657 935 q 625 1013 625 967 q 657 1090 625 1058 q 735 1122 689 1122 q 813 1090 781 1122 q 844 1013 844 1058 q 813 935 844 967 q 735 903 781 903 q 657 935 689 903 z "},"Ð":{"ha":961,"x_min":-79,"x_max":906,"o":"m -79 128 q 75 440 -6 294 q -40 467 18 454 l 18 622 q 168 588 74 611 q 315 783 228 678 q 142 799 208 799 l 201 964 q 522 931 368 957 q 824 842 676 906 l 906 656 q 610 189 839 374 q 99 -36 399 19 l -79 128 m 165 171 q 500 357 354 225 q 703 681 654 496 q 356 776 554 743 l 478 676 q 367 525 418 601 q 465 488 413 508 l 400 332 q 274 379 335 358 q 165 171 215 282 z "},"Ñ":{"ha":1010,"x_min":-97,"x_max":1074,"o":"m -97 107 q 132 558 -18 297 q 407 978 267 794 l 544 843 q 569 356 547 611 q 904 924 718 668 l 1046 793 q 611 -14 818 475 l 426 -51 q 368 574 382 276 q 64 -40 182 261 l -97 107 m 881 971 q 815 1005 847 981 q 751 1056 782 1029 q 694 1106 721 1083 q 644 1135 667 1129 l 532 1128 l 518 1258 q 633 1285 576 1278 q 710 1293 690 1293 q 839 1206 757 1279 q 897 1156 869 1179 q 947 1128 925 1133 l 1058 1135 l 1074 1006 q 957 978 1015 986 q 881 971 899 971 z "},"Ò":{"ha":953,"x_min":-25,"x_max":913,"o":"m 843 536 q 568 746 696 668 q 317 496 426 672 q 189 126 203 314 q 561 422 407 186 q 651 606 613 503 l 843 536 q 600 132 750 275 q 181 -72 438 -24 l -25 117 q 326 806 15 544 q 581 965 435 897 q 906 724 765 871 l 843 536 m 813 915 q 506 1183 681 1054 l 617 1310 q 913 1019 797 1153 l 813 915 z "},"Ó":{"ha":953,"x_min":-25,"x_max":1186,"o":"m 843 536 q 568 746 696 668 q 317 496 426 672 q 189 126 203 314 q 561 422 407 186 q 651 606 613 503 l 843 536 q 600 132 750 275 q 181 -72 438 -24 l -25 117 q 326 806 15 544 q 581 965 435 897 q 906 724 765 871 l 843 536 m 1186 1088 q 790 947 996 1001 l 736 1082 q 999 1192 931 1158 q 1115 1253 1068 1226 l 1186 1088 z "},"Ô":{"ha":953,"x_min":-25,"x_max":1076,"o":"m 843 536 q 568 746 696 668 q 317 496 426 672 q 189 126 203 314 q 561 422 407 186 q 651 606 613 503 l 843 536 q 600 132 750 275 q 181 -72 438 -24 l -25 117 q 326 806 15 544 q 581 965 435 897 q 906 724 765 871 l 843 536 m 939 888 q 821 1132 882 1025 q 649 1076 704 1100 q 553 1033 593 1051 l 486 1157 q 683 1251 611 1225 q 807 1294 754 1278 l 972 1210 q 1076 922 1029 1096 l 939 888 z "},"Õ":{"ha":953,"x_min":-25,"x_max":1083,"o":"m 843 536 q 568 746 696 668 q 317 496 426 672 q 189 126 203 314 q 561 422 407 186 q 651 606 613 503 l 843 536 q 600 132 750 275 q 181 -72 438 -24 l -25 117 q 326 806 15 544 q 581 965 435 897 q 906 724 765 871 l 843 536 m 890 932 q 824 966 857 942 q 761 1017 792 990 q 703 1067 731 1044 q 654 1096 676 1090 l 542 1089 l 528 1219 q 643 1247 586 1239 q 719 1254 700 1254 q 849 1167 767 1240 q 907 1117 879 1140 q 957 1089 935 1094 l 1068 1096 l 1083 967 q 967 940 1025 947 q 890 932 908 932 z "},"Ö":{"ha":953,"x_min":-25,"x_max":1076,"o":"m 843 536 q 568 746 696 668 q 317 496 426 672 q 189 126 203 314 q 561 422 407 186 q 651 606 613 503 l 843 536 q 600 132 750 275 q 181 -72 438 -24 l -25 117 q 326 806 15 544 q 581 965 435 897 q 906 724 765 871 l 843 536 m 532 1082 q 500 1160 500 1114 q 533 1238 500 1206 q 611 1271 565 1271 q 689 1238 657 1271 q 721 1160 721 1206 q 689 1082 721 1114 q 611 1050 657 1050 q 532 1082 565 1050 m 889 949 q 857 1026 857 981 q 889 1104 857 1072 q 967 1136 921 1136 q 1044 1104 1013 1136 q 1076 1026 1076 1072 q 1044 949 1076 981 q 967 917 1013 917 q 889 949 921 917 z "},"×":{"ha":846,"x_min":60,"x_max":674,"o":"m 329 285 q 142 175 165 189 l 60 324 q 250 435 154 383 q 163 619 204 525 l 313 690 q 351 606 329 650 l 397 514 q 600 614 571 601 l 674 465 q 478 365 632 447 q 592 181 558 226 l 442 101 q 329 285 399 164 z "},"Ø":{"ha":965,"x_min":-112,"x_max":983,"o":"m -112 -54 q 17 78 -32 24 l -25 117 q 326 806 15 544 q 581 965 435 897 q 754 858 676 918 l 885 999 l 983 906 l 860 769 l 906 724 l 843 536 q 600 132 750 275 q 181 -72 438 -24 l 118 -15 q -15 -151 46 -87 l -112 -54 m 843 536 q 568 746 696 668 q 317 496 426 672 q 189 126 203 314 q 561 422 407 186 q 651 606 613 503 l 843 536 z "},"Ù":{"ha":944,"x_min":-69,"x_max":982,"o":"m 379 79 q 106 -35 278 26 l -69 133 q 393 965 103 588 l 543 817 q 250 356 393 635 q 175 194 208 272 q 456 278 342 232 l 456 275 q 829 917 676 731 l 982 768 q 536 -69 765 507 l 379 79 m 733 933 q 426 1201 601 1072 l 538 1328 q 833 1038 718 1171 l 733 933 z "},"Ú":{"ha":944,"x_min":-69,"x_max":1060,"o":"m 379 79 q 106 -35 278 26 l -69 133 q 393 965 103 588 l 543 817 q 250 356 393 635 q 175 194 208 272 q 456 278 342 232 l 456 275 q 829 917 676 731 l 982 768 q 536 -69 765 507 l 379 79 m 1060 1124 q 664 983 869 1038 l 610 1118 q 873 1228 804 1194 q 989 1289 942 1263 l 1060 1124 z "},"Û":{"ha":944,"x_min":-69,"x_max":1061,"o":"m 379 79 q 106 -35 278 26 l -69 133 q 393 965 103 588 l 543 817 q 250 356 393 635 q 175 194 208 272 q 456 278 342 232 l 456 275 q 829 917 676 731 l 982 768 q 536 -69 765 507 l 379 79 m 924 900 q 806 1144 867 1038 q 633 1088 689 1113 q 538 1046 578 1064 l 471 1169 q 667 1264 596 1238 q 792 1307 739 1290 l 957 1222 q 1061 935 1014 1108 l 924 900 z "},"Ü":{"ha":944,"x_min":-69,"x_max":1100,"o":"m 379 79 q 106 -35 278 26 l -69 133 q 393 965 103 588 l 543 817 q 250 356 393 635 q 175 194 208 272 q 456 278 342 232 l 456 275 q 829 917 676 731 l 982 768 q 536 -69 765 507 l 379 79 m 556 1082 q 524 1160 524 1114 q 556 1238 524 1206 q 635 1271 589 1271 q 713 1238 681 1271 q 744 1160 744 1206 q 713 1082 744 1114 q 635 1050 681 1050 q 556 1082 589 1050 m 913 949 q 881 1026 881 981 q 913 1104 881 1072 q 990 1136 944 1136 q 1068 1104 1036 1136 q 1100 1026 1100 1072 q 1068 949 1100 981 q 990 917 1036 917 q 913 949 944 917 z "},"Ý":{"ha":786,"x_min":18,"x_max":932,"o":"m 340 490 q 726 921 560 682 l 882 772 q 340 272 624 444 q 190 -57 264 154 l 18 92 q 102 284 76 238 q 156 375 128 331 q 207 1015 124 653 l 393 844 q 340 490 346 660 m 932 1124 q 536 983 742 1038 l 482 1118 q 745 1228 676 1194 q 861 1289 814 1263 l 932 1124 z "},"Þ":{"ha":926,"x_min":-92,"x_max":814,"o":"m -92 108 q 249 743 67 460 q 396 958 317 849 l 547 825 q 476 722 507 769 q 706 604 572 682 l 814 361 q 563 222 653 261 q 269 133 418 163 l 201 244 q 69 -40 128 97 l -92 108 m 597 456 q 376 567 508 511 q 239 318 310 454 q 597 456 443 361 z "},"ß":{"ha":943,"x_min":-121,"x_max":981,"o":"m 640 688 q 422 779 553 735 q 119 175 257 513 q 43 -40 74 61 l -121 68 q 136 639 -60 271 q 243 831 192 742 q 467 933 339 893 q 819 776 668 879 l 842 599 q 581 435 661 524 q 665 342 610 390 q 778 238 719 293 q 950 322 882 286 l 981 182 q 438 -49 746 17 q 213 121 304 29 l 321 251 q 482 129 394 181 q 601 165 538 143 l 454 308 q 340 433 364 397 q 640 688 428 565 z "},"à":{"ha":856,"x_min":-47,"x_max":893,"o":"m 378 88 q 125 -37 268 1 l -47 122 q -14 338 -47 232 q 85 528 19 443 q 247 669 150 613 q 469 736 343 725 l 561 596 q 632 688 578 622 l 768 571 q 540 188 631 392 l 536 185 q 725 256 617 206 q 863 322 833 307 l 893 182 q 621 28 811 122 q 485 -32 546 -10 l 378 88 m 147 163 q 418 360 296 203 q 472 557 454 439 q 238 431 329 543 q 147 163 147 319 m 596 756 q 404 1107 515 943 l 561 1193 q 732 815 653 1026 l 596 756 z "},"á":{"ha":856,"x_min":-47,"x_max":944,"o":"m 378 88 q 125 -37 268 1 l -47 122 q -14 338 -47 232 q 85 528 19 443 q 247 669 150 613 q 469 736 343 725 l 561 596 q 632 688 578 622 l 768 571 q 540 188 631 392 l 536 185 q 725 256 617 206 q 863 322 833 307 l 893 182 q 621 28 811 122 q 485 -32 546 -10 l 378 88 m 147 163 q 418 360 296 203 q 472 557 454 439 q 238 431 329 543 q 147 163 147 319 m 944 1004 q 617 749 821 889 l 513 856 q 810 1135 664 972 l 944 1004 z "},"â":{"ha":856,"x_min":-47,"x_max":893,"o":"m 378 88 q 125 -37 268 1 l -47 122 q -14 338 -47 232 q 85 528 19 443 q 247 669 150 613 q 469 736 343 725 l 561 596 q 632 688 578 622 l 768 571 q 540 188 631 392 l 536 185 q 725 256 617 206 q 863 322 833 307 l 893 182 q 621 28 811 122 q 485 -32 546 -10 l 378 88 m 147 163 q 418 360 296 203 q 472 557 454 439 q 238 431 329 543 q 147 163 147 319 m 669 938 q 406 831 508 883 l 339 954 q 660 1104 494 1039 l 825 1019 q 873 823 863 881 q 892 719 883 765 l 754 685 q 669 938 714 836 z "},"ã":{"ha":856,"x_min":-47,"x_max":938,"o":"m 378 88 q 125 -37 268 1 l -47 122 q -14 338 -47 232 q 85 528 19 443 q 247 669 150 613 q 469 736 343 725 l 561 596 q 632 688 578 622 l 768 571 q 540 188 631 392 l 536 185 q 725 256 617 206 q 863 322 833 307 l 893 182 q 621 28 811 122 q 485 -32 546 -10 l 378 88 m 147 163 q 418 360 296 203 q 472 557 454 439 q 238 431 329 543 q 147 163 147 319 m 938 763 q 743 729 829 729 q 679 763 710 739 q 619 815 649 788 q 561 865 589 842 q 507 893 533 888 l 394 885 l 381 1017 q 492 1042 432 1033 q 572 1050 553 1050 q 637 1015 606 1040 q 698 963 668 990 q 756 913 728 936 q 810 885 783 890 l 921 893 l 938 763 z "},"ä":{"ha":856,"x_min":-47,"x_max":946,"o":"m 378 88 q 125 -37 268 1 l -47 122 q -14 338 -47 232 q 85 528 19 443 q 247 669 150 613 q 469 736 343 725 l 561 596 q 632 688 578 622 l 768 571 q 540 188 631 392 l 536 185 q 725 256 617 206 q 863 322 833 307 l 893 182 q 621 28 811 122 q 485 -32 546 -10 l 378 88 m 147 163 q 418 360 296 203 q 472 557 454 439 q 238 431 329 543 q 147 163 147 319 m 479 868 q 401 901 433 868 q 369 979 369 933 q 401 1057 369 1025 q 479 1089 433 1089 q 557 1057 525 1089 q 589 979 589 1025 q 557 901 589 933 q 479 868 525 868 m 757 767 q 725 844 725 799 q 758 923 725 890 q 836 956 790 956 q 914 923 882 956 q 946 844 946 890 q 914 767 946 799 q 836 735 882 735 q 757 767 790 735 z "},"å":{"ha":856,"x_min":-47,"x_max":893,"o":"m 378 88 q 125 -37 268 1 l -47 122 q -14 338 -47 232 q 85 528 19 443 q 247 669 150 613 q 469 736 343 725 l 561 596 q 632 688 578 622 l 768 571 q 540 188 631 392 l 536 185 q 725 256 617 206 q 863 322 833 307 l 893 182 q 621 28 811 122 q 485 -32 546 -10 l 378 88 m 147 163 q 418 360 296 203 q 472 557 454 439 q 238 431 329 543 q 147 163 147 319 m 703 771 q 669 771 703 771 q 588 818 635 771 q 540 934 540 865 q 587 1049 540 1003 q 704 1096 633 1096 q 818 1049 771 1096 q 865 932 865 1001 q 818 818 865 865 q 703 771 771 771 m 636 933 q 636 919 636 933 q 656 887 636 906 q 702 868 675 868 q 748 887 729 868 q 767 933 767 906 q 748 979 767 960 q 702 999 729 999 q 656 979 675 999 q 636 933 636 960 z "},"æ":{"ha":1165,"x_min":-47,"x_max":1203,"o":"m 378 119 q 125 -37 275 22 l -47 122 q -14 338 -47 232 q 85 528 19 443 q 247 669 150 613 q 469 736 343 725 l 526 649 q 589 781 565 742 l 693 671 q 833 738 765 715 l 1068 543 q 936 333 1033 399 q 704 268 839 268 q 589 278 626 268 q 561 143 567 224 q 1028 250 801 157 q 1172 322 1104 281 l 1203 182 q 900 38 1074 100 q 549 -37 717 -29 l 378 119 m 647 403 q 793 447 728 403 q 869 594 869 500 q 739 510 799 561 q 647 403 679 460 m 147 163 q 431 360 311 207 q 472 557 454 440 q 238 431 329 543 q 147 163 147 319 z "},"ç":{"ha":738,"x_min":-122,"x_max":775,"o":"m 94 -157 q 28 -93 67 -124 l 93 -4 l -44 122 q -32 275 -44 221 q 233 644 22 504 q 425 738 328 707 l 647 572 q 608 471 640 540 q 525 311 556 354 l 350 422 q 444 581 425 517 q 228 397 311 524 q 153 143 153 283 q 744 322 493 188 l 775 182 q 300 -12 557 44 q 213 -29 256 -24 l 188 -65 q 290 -157 222 -92 l 242 -261 q -103 -310 103 -303 l -122 -197 q 94 -157 1 -185 z "},"è":{"ha":747,"x_min":-49,"x_max":783,"o":"m 279 268 q 176 278 214 268 q 149 143 154 224 q 610 250 388 157 q 754 322 685 281 l 783 182 q 478 38 654 100 q 124 -37 290 -29 l -49 122 q 56 472 -49 314 q 226 646 131 582 q 408 738 321 710 l 643 543 q 511 333 608 399 q 279 268 414 268 m 235 403 q 375 447 315 403 q 444 594 444 500 q 235 403 304 518 m 588 756 q 396 1107 507 943 l 553 1193 q 724 815 644 1026 l 588 756 z "},"é":{"ha":747,"x_min":-49,"x_max":974,"o":"m 279 268 q 176 278 214 268 q 149 143 154 224 q 610 250 388 157 q 754 322 685 281 l 783 182 q 478 38 654 100 q 124 -37 290 -29 l -49 122 q 56 472 -49 314 q 226 646 131 582 q 408 738 321 710 l 643 543 q 511 333 608 399 q 279 268 414 268 m 235 403 q 375 447 315 403 q 444 594 444 500 q 235 403 304 518 m 974 1004 q 646 749 850 889 l 542 856 q 839 1135 693 972 l 974 1004 z "},"ê":{"ha":747,"x_min":-49,"x_max":829,"o":"m 279 268 q 176 278 214 268 q 149 143 154 224 q 610 250 388 157 q 754 322 685 281 l 783 182 q 478 38 654 100 q 124 -37 290 -29 l -49 122 q 56 472 -49 314 q 226 646 131 582 q 408 738 321 710 l 643 543 q 511 333 608 399 q 279 268 414 268 m 235 403 q 375 447 315 403 q 444 594 444 500 q 235 403 304 518 m 607 938 q 343 831 446 883 l 276 954 q 597 1104 432 1039 l 763 1019 q 810 823 800 881 q 829 719 821 765 l 692 685 q 607 938 651 836 z "},"ë":{"ha":747,"x_min":-49,"x_max":889,"o":"m 279 268 q 176 278 214 268 q 149 143 154 224 q 610 250 388 157 q 754 322 685 281 l 783 182 q 478 38 654 100 q 124 -37 290 -29 l -49 122 q 56 472 -49 314 q 226 646 131 582 q 408 738 321 710 l 643 543 q 511 333 608 399 q 279 268 414 268 m 235 403 q 375 447 315 403 q 444 594 444 500 q 235 403 304 518 m 422 857 q 344 890 376 857 q 313 968 313 922 q 344 1046 313 1014 q 422 1078 376 1078 q 500 1046 468 1078 q 532 968 532 1014 q 500 890 532 922 q 422 857 468 857 m 700 756 q 668 833 668 788 q 701 912 668 879 q 779 944 733 944 q 857 912 825 944 q 889 833 889 879 q 857 756 889 788 q 779 724 825 724 q 700 756 733 724 z "},"ì":{"ha":461,"x_min":-112,"x_max":525,"o":"m 128 175 q 468 322 269 218 l 497 182 q 172 11 363 94 q 47 -37 108 -17 l -112 110 q 132 574 -44 296 q 235 719 185 657 l 372 618 q 175 283 271 479 q 128 175 147 225 m 389 756 q 197 1107 308 943 l 354 1193 q 525 815 446 1026 l 389 756 z "},"í":{"ha":461,"x_min":-112,"x_max":797,"o":"m 128 175 q 468 322 269 218 l 497 182 q 172 11 363 94 q 47 -37 108 -17 l -112 110 q 132 574 -44 296 q 235 719 185 657 l 372 618 q 175 283 271 479 q 128 175 147 225 m 797 1004 q 469 749 674 889 l 365 856 q 663 1135 517 972 l 797 1004 z "},"î":{"ha":461,"x_min":-112,"x_max":657,"o":"m 128 175 q 468 322 269 218 l 497 182 q 172 11 363 94 q 47 -37 108 -17 l -112 110 q 132 574 -44 296 q 235 719 185 657 l 372 618 q 175 283 271 479 q 128 175 147 225 m 435 938 q 171 831 274 883 l 104 954 q 425 1104 260 1039 l 590 1019 q 638 823 628 881 q 657 719 649 765 l 519 685 q 435 938 479 836 z "},"ï":{"ha":461,"x_min":-112,"x_max":724,"o":"m 128 175 q 468 322 269 218 l 497 182 q 172 11 363 94 q 47 -37 108 -17 l -112 110 q 132 574 -44 296 q 235 719 185 657 l 372 618 q 175 283 271 479 q 128 175 147 225 m 257 868 q 179 901 211 868 q 147 979 147 933 q 179 1057 147 1025 q 257 1089 211 1089 q 335 1057 303 1089 q 367 979 367 1025 q 335 901 367 933 q 257 868 303 868 m 535 767 q 503 844 503 799 q 535 923 503 890 q 614 956 568 956 q 692 923 660 956 q 724 844 724 890 q 692 767 724 799 q 614 735 660 735 q 535 767 568 735 z "},"ð":{"ha":807,"x_min":-71,"x_max":843,"o":"m 586 294 q 814 322 703 300 l 843 182 q 536 81 682 114 l 479 147 q 333 36 421 88 q 126 -37 244 -15 l -71 128 q 3 386 -60 258 q 54 469 25 432 q 183 588 113 544 q 346 658 253 631 l 472 531 q 497 731 494 614 q 371 708 436 722 l 350 860 q 490 882 419 874 l 476 979 l 668 1007 q 685 901 678 950 q 824 908 721 904 l 832 757 q 693 751 697 751 q 586 294 693 493 m 124 150 q 344 288 253 179 q 467 508 433 393 q 225 378 315 476 q 124 150 142 285 z "},"ñ":{"ha":874,"x_min":-112,"x_max":910,"o":"m 271 483 q 558 672 410 593 l 726 540 q 565 185 681 343 q 881 322 704 232 l 910 182 q 736 86 853 144 q 460 -37 536 -12 l 288 85 q 427 283 371 185 q 500 454 483 381 q 161 260 322 371 q 53 -37 97 107 l -112 69 q 35 429 -65 229 q 224 732 125 608 l 364 631 q 271 483 315 565 m 885 763 q 690 729 776 729 q 626 763 657 739 q 566 815 596 788 q 508 865 536 842 q 454 893 481 888 l 342 885 l 328 1017 q 440 1042 379 1033 q 519 1050 500 1050 q 584 1015 553 1040 q 645 963 615 990 q 703 913 675 936 q 757 885 731 890 l 868 893 l 885 763 z "},"ò":{"ha":814,"x_min":-47,"x_max":851,"o":"m 501 157 q 150 -37 368 3 l -47 128 q 6 392 -47 261 q 225 657 72 556 q 454 744 331 728 l 675 556 q 594 294 651 406 q 821 322 694 300 l 851 182 q 568 81 671 107 l 501 157 m 139 151 q 403 347 297 188 q 467 478 447 415 q 488 578 486 540 q 274 458 375 563 q 139 151 147 329 m 606 756 q 414 1107 525 943 l 571 1193 q 742 815 663 1026 l 606 756 z "},"ó":{"ha":814,"x_min":-47,"x_max":1015,"o":"m 501 157 q 150 -37 368 3 l -47 128 q 6 392 -47 261 q 225 657 72 556 q 454 744 331 728 l 675 556 q 594 294 651 406 q 821 322 694 300 l 851 182 q 568 81 671 107 l 501 157 m 139 151 q 403 347 297 188 q 467 478 447 415 q 488 578 486 540 q 274 458 375 563 q 139 151 147 329 m 1015 1004 q 688 749 892 889 l 583 856 q 881 1135 735 972 l 1015 1004 z "},"ô":{"ha":814,"x_min":-47,"x_max":882,"o":"m 501 157 q 150 -37 368 3 l -47 128 q 6 392 -47 261 q 225 657 72 556 q 454 744 331 728 l 675 556 q 594 294 651 406 q 821 322 694 300 l 851 182 q 568 81 671 107 l 501 157 m 139 151 q 403 347 297 188 q 467 478 447 415 q 488 578 486 540 q 274 458 375 563 q 139 151 147 329 m 660 938 q 396 831 499 883 l 329 954 q 650 1104 485 1039 l 815 1019 q 863 823 853 881 q 882 719 874 765 l 744 685 q 660 938 704 836 z "},"õ":{"ha":814,"x_min":-47,"x_max":947,"o":"m 501 157 q 150 -37 368 3 l -47 128 q 6 392 -47 261 q 225 657 72 556 q 454 744 331 728 l 675 556 q 594 294 651 406 q 821 322 694 300 l 851 182 q 568 81 671 107 l 501 157 m 139 151 q 403 347 297 188 q 467 478 447 415 q 488 578 486 540 q 274 458 375 563 q 139 151 147 329 m 947 763 q 753 729 839 729 q 689 763 719 739 q 628 815 658 788 q 571 865 599 842 q 517 893 543 888 l 404 885 l 390 1017 q 502 1042 442 1033 q 582 1050 563 1050 q 647 1015 615 1040 q 708 963 678 990 q 765 913 738 936 q 819 885 793 890 l 931 893 l 947 763 z "},"ö":{"ha":814,"x_min":-47,"x_max":956,"o":"m 501 157 q 150 -37 368 3 l -47 128 q 6 392 -47 261 q 225 657 72 556 q 454 744 331 728 l 675 556 q 594 294 651 406 q 821 322 694 300 l 851 182 q 568 81 671 107 l 501 157 m 139 151 q 403 347 297 188 q 467 478 447 415 q 488 578 486 540 q 274 458 375 563 q 139 151 147 329 m 489 868 q 411 901 443 868 q 379 979 379 933 q 411 1057 379 1025 q 489 1089 443 1089 q 567 1057 535 1089 q 599 979 599 1025 q 567 901 599 933 q 489 868 535 868 m 767 767 q 735 844 735 799 q 767 923 735 890 q 846 956 800 956 q 924 923 892 956 q 956 844 956 890 q 924 767 956 799 q 846 735 892 735 q 767 767 800 735 z "},"÷":{"ha":846,"x_min":89,"x_max":678,"o":"m 394 615 q 361 699 361 650 q 395 783 361 749 q 478 817 429 817 q 560 783 526 817 q 594 699 594 749 q 560 616 594 650 q 478 582 526 582 q 394 615 429 582 m 614 264 q 89 443 346 379 l 153 601 q 678 418 419 532 l 614 264 m 290 57 q 266 57 290 57 q 208 91 242 57 q 174 174 174 125 q 208 258 174 224 q 290 292 242 292 q 373 258 339 292 q 407 174 407 224 q 373 91 407 125 q 290 57 339 57 z "},"ø":{"ha":814,"x_min":-107,"x_max":851,"o":"m -107 -31 l -1 89 l -47 128 q 6 392 -47 261 q 225 657 72 556 q 454 744 331 728 l 522 686 l 618 806 l 710 731 q 611 610 686 703 l 675 556 q 594 294 651 406 q 821 322 694 300 l 851 182 q 568 81 671 107 l 501 157 q 150 -37 368 3 l 89 14 l -18 -107 l -107 -31 m 139 151 q 403 347 297 188 q 467 478 447 415 q 488 578 486 540 q 274 458 375 563 q 139 151 147 329 z "},"ù":{"ha":833,"x_min":-69,"x_max":869,"o":"m 340 104 q 115 -37 253 21 l -69 122 q 28 432 -50 279 q 228 750 106 585 l 371 640 q 125 163 176 378 q 151 170 126 163 q 214 200 175 178 q 396 360 313 256 q 582 682 493 557 l 731 567 q 518 188 600 375 l 513 185 q 706 257 601 208 q 840 322 811 306 l 869 182 q 599 28 783 119 q 463 -32 524 -10 l 340 104 m 464 756 q 272 1107 383 943 l 429 1193 q 600 815 521 1026 l 464 756 z "},"ú":{"ha":833,"x_min":-69,"x_max":869,"o":"m 340 104 q 115 -37 253 21 l -69 122 q 28 432 -50 279 q 228 750 106 585 l 371 640 q 125 163 176 378 q 151 170 126 163 q 214 200 175 178 q 396 360 313 256 q 582 682 493 557 l 731 567 q 518 188 600 375 l 513 185 q 706 257 601 208 q 840 322 811 306 l 869 182 q 599 28 783 119 q 463 -32 524 -10 l 340 104 m 861 1004 q 533 749 738 889 l 429 856 q 726 1135 581 972 l 861 1004 z "},"û":{"ha":833,"x_min":-69,"x_max":869,"o":"m 340 104 q 115 -37 253 21 l -69 122 q 28 432 -50 279 q 228 750 106 585 l 371 640 q 125 163 176 378 q 151 170 126 163 q 214 200 175 178 q 396 360 313 256 q 582 682 493 557 l 731 567 q 518 188 600 375 l 513 185 q 706 257 601 208 q 840 322 811 306 l 869 182 q 599 28 783 119 q 463 -32 524 -10 l 340 104 m 619 938 q 356 831 458 883 l 289 954 q 610 1104 444 1039 l 775 1019 q 823 823 813 881 q 842 719 833 765 l 704 685 q 619 938 664 836 z "},"ü":{"ha":833,"x_min":-69,"x_max":896,"o":"m 340 104 q 115 -37 253 21 l -69 122 q 28 432 -50 279 q 228 750 106 585 l 371 640 q 125 163 176 378 q 151 170 126 163 q 214 200 175 178 q 396 360 313 256 q 582 682 493 557 l 731 567 q 518 188 600 375 l 513 185 q 706 257 601 208 q 840 322 811 306 l 869 182 q 599 28 783 119 q 463 -32 524 -10 l 340 104 m 429 868 q 351 901 383 868 q 319 979 319 933 q 351 1057 319 1025 q 429 1089 383 1089 q 507 1057 475 1089 q 539 979 539 1025 q 507 901 539 933 q 429 868 475 868 m 707 767 q 675 844 675 799 q 708 923 675 890 q 786 956 740 956 q 864 923 832 956 q 896 844 896 890 q 864 767 896 799 q 786 735 832 735 q 707 767 740 735 z "},"ý":{"ha":842,"x_min":-203,"x_max":879,"o":"m 533 204 q 849 322 758 269 l 879 182 q 631 31 768 99 q 546 -7 582 6 l 478 68 q 386 -214 439 -108 q 244 -408 336 -311 q -90 -360 92 -404 q -194 -329 -147 -346 l -203 -100 q 4 39 -110 -18 l -76 97 q 114 569 -64 281 q 236 750 169 660 l 381 640 q 118 138 138 299 q 236 172 192 149 q 378 310 325 219 q 592 682 497 549 l 739 567 q 533 204 603 358 m -62 -201 q 149 -233 65 -231 q 290 7 239 -157 q -62 -201 64 -85 m 863 1004 q 535 749 739 889 l 431 856 q 728 1135 582 972 l 863 1004 z "},"þ":{"ha":849,"x_min":-269,"x_max":885,"o":"m 256 488 q 521 672 372 590 l 689 540 q 653 349 678 429 q 571 210 628 268 q 856 322 728 263 l 885 182 q 393 6 708 83 q 197 -37 296 -19 l 63 86 q -40 -182 3 -54 q -110 -394 -82 -310 l -269 -287 q 360 992 -17 424 l 504 885 q 328 614 379 701 q 256 488 278 526 m 75 115 q 222 145 154 128 q 312 173 290 163 q 364 213 333 183 q 419 281 394 242 q 489 467 475 369 q 126 229 335 386 l 75 115 z "},"ÿ":{"ha":842,"x_min":-203,"x_max":890,"o":"m 533 204 q 849 322 758 269 l 879 182 q 631 31 768 99 q 546 -7 582 6 l 478 68 q 386 -214 439 -108 q 244 -408 336 -311 q -90 -360 92 -404 q -194 -329 -147 -346 l -203 -100 q 4 39 -110 -18 l -76 97 q 114 569 -64 281 q 236 750 169 660 l 381 640 q 118 138 138 299 q 236 172 192 149 q 378 310 325 219 q 592 682 497 549 l 739 567 q 533 204 603 358 m -62 -201 q 149 -233 65 -231 q 290 7 239 -157 q -62 -201 64 -85 m 424 868 q 346 901 378 868 q 314 979 314 933 q 346 1057 314 1025 q 424 1089 378 1089 q 501 1057 469 1089 q 533 979 533 1025 q 501 901 533 933 q 424 868 469 868 m 701 767 q 669 844 669 799 q 702 923 669 890 q 781 956 735 956 q 858 923 826 956 q 890 844 890 890 q 858 767 890 799 q 781 735 826 735 q 701 767 735 735 z "},"ħ":{"ha":874,"x_min":-112,"x_max":910,"o":"m 261 485 q 558 672 390 583 l 726 540 q 565 185 681 343 q 881 322 704 232 l 910 182 q 736 86 853 144 q 460 -37 536 -12 l 288 85 q 427 283 371 185 q 500 454 483 381 q 260 326 318 364 q 157 257 203 289 q 53 -37 89 89 l -112 69 q 89 539 -67 226 q 215 779 154 671 q 126 821 171 801 l 193 940 q 285 900 238 922 q 343 992 317 951 l 485 885 q 442 814 463 850 q 526 760 485 788 l 451 643 q 372 694 413 669 q 342 640 371 692 q 261 485 314 589 z "},"Ĩ":{"ha":500,"x_min":-87,"x_max":871,"o":"m -87 107 q 410 957 117 567 l 551 813 q 319 454 410 617 q 72 -40 160 165 l -87 107 m 678 918 q 612 952 644 928 q 549 1003 579 976 q 491 1053 518 1031 q 442 1082 464 1076 l 329 1075 l 315 1206 q 431 1233 374 1225 q 507 1240 488 1240 q 636 1153 554 1226 q 694 1103 667 1126 q 744 1075 722 1081 l 856 1082 l 871 953 q 754 926 813 933 q 678 918 696 918 z "},"ĩ":{"ha":461,"x_min":-112,"x_max":703,"o":"m 128 175 q 468 322 269 218 l 497 182 q 172 11 363 94 q 47 -37 108 -17 l -112 110 q 132 574 -44 296 q 235 719 185 657 l 372 618 q 175 283 271 479 q 128 175 147 225 m 703 763 q 508 729 594 729 q 444 763 475 739 q 384 815 414 788 q 326 865 354 842 q 272 893 299 888 l 160 885 l 146 1017 q 258 1042 197 1033 q 338 1050 318 1050 q 402 1015 371 1040 q 463 963 433 990 q 521 913 493 936 q 575 885 549 890 l 686 893 l 703 763 z "},"ı":{"ha":461,"x_min":-112,"x_max":497,"o":"m 128 175 q 468 322 269 218 l 497 182 q 172 11 363 94 q 47 -37 108 -17 l -112 110 q 132 574 -44 296 q 235 719 185 657 l 372 618 q 175 283 271 479 q 128 175 147 225 z "},"Ĳ":{"ha":1186,"x_min":-87,"x_max":1238,"o":"m -87 107 q 410 957 117 567 l 551 813 q 319 454 410 617 q 72 -40 160 165 l -87 107 m 468 -40 q 392 304 408 140 l 575 340 q 622 128 592 235 q 958 761 775 471 q 1093 957 1024 865 l 1238 813 q 881 203 1071 582 q 782 -3 824 90 l 468 -40 z "},"ĳ":{"ha":921,"x_min":-112,"x_max":990,"o":"m 765 867 q 798 947 765 914 q 878 979 831 979 q 958 947 925 979 q 990 867 990 914 q 958 787 990 819 q 878 754 925 754 q 798 787 831 754 q 765 867 765 819 m 338 786 q 306 867 306 819 q 338 947 306 914 q 418 979 371 979 q 498 947 465 979 q 531 867 531 914 q 498 787 531 819 q 418 754 465 754 q 338 786 371 754 m 325 83 q 47 -37 165 3 l -112 110 q 132 574 -44 296 q 235 719 185 657 l 372 618 q 175 283 271 479 q 128 175 147 225 q 429 301 265 218 q 694 719 550 531 l 832 618 q 575 172 665 389 q 763 242 678 203 q 928 322 849 282 l 957 182 q 653 22 832 100 q 532 -25 593 -4 l 494 11 q 338 -408 417 -157 l 176 -307 q 325 83 229 -139 z "},"Ĵ":{"ha":686,"x_min":-108,"x_max":1014,"o":"m -32 -40 q -108 304 -92 140 l 75 340 q 122 128 92 235 q 458 761 275 471 q 593 957 524 865 l 738 813 q 381 203 571 582 q 282 -3 324 90 l -32 -40 m 876 872 q 758 1117 819 1010 q 586 1060 642 1085 q 490 1018 531 1036 l 424 1142 q 620 1236 549 1210 q 744 1279 692 1263 l 910 1194 q 1014 907 967 1081 l 876 872 z "},"ĵ":{"ha":461,"x_min":-283,"x_max":664,"o":"m 35 11 q -122 -408 -43 -157 l -283 -307 q 158 615 -112 222 q 235 719 199 674 l 372 618 q 115 172 206 389 q 303 242 218 203 q 468 322 389 282 l 497 182 q 194 22 372 100 q 72 -25 133 -4 l 35 11 m 442 938 q 178 831 281 883 l 111 954 q 432 1104 267 1039 l 597 1019 q 645 823 635 881 q 664 719 656 765 l 526 685 q 442 938 486 836 z "},"Ķ":{"ha":936,"x_min":-107,"x_max":997,"o":"m 481 349 q 692 39 553 222 l 506 -81 q 258 356 374 110 q 46 -40 172 211 l -107 101 q 292 774 106 506 q 425 957 356 865 l 568 810 q 325 464 438 647 q 868 868 646 660 l 997 718 q 775 529 868 594 q 481 349 640 435 m 32 -332 q 203 -10 117 -214 l 372 -111 q 168 -407 283 -275 l 32 -332 z "},"ķ":{"ha":767,"x_min":-119,"x_max":804,"o":"m 804 182 q 417 -37 615 56 l 243 85 q 186 321 200 207 q 46 -37 115 160 l -119 69 q 213 767 1 394 q 349 992 279 883 l 492 885 q 229 418 351 678 q 615 735 415 592 l 757 603 q 363 340 501 440 q 433 178 386 274 q 774 322 610 238 l 804 182 m -19 -332 q 151 -10 65 -214 l 321 -111 q 117 -407 232 -275 l -19 -332 z "},"ĸ":{"ha":767,"x_min":-112,"x_max":804,"o":"m 804 182 q 417 -37 615 56 l 243 85 q 183 329 197 218 q 53 -37 128 203 l -112 69 q 125 611 -32 340 q 239 789 178 703 l 392 682 q 222 411 296 558 q 615 735 436 608 l 757 603 q 363 340 501 440 q 433 178 386 274 q 774 322 610 238 l 804 182 z "},"Ŀ":{"ha":708,"x_min":-86,"x_max":611,"o":"m 174 194 q 543 142 318 164 l 483 -51 q 210 -19 293 -35 q 81 6 128 -4 l -86 157 q 413 957 83 510 l 556 813 q 174 194 374 563 m 353 334 q 353 361 353 334 q 390 426 353 389 q 482 464 428 464 q 574 426 536 464 q 611 335 611 389 q 532 215 611 251 q 390 243 454 182 q 353 334 353 279 z "},"ŀ":{"ha":646,"x_min":-87,"x_max":682,"o":"m -87 122 q 99 558 -39 303 q 406 1022 253 843 l 547 918 q 269 496 404 749 q 115 135 154 283 q 511 244 304 149 q 653 322 583 276 l 682 182 q 239 -15 476 39 q 85 -37 160 -33 l -87 122 m 446 303 q 364 336 397 303 q 331 417 331 369 q 364 499 331 465 q 446 532 397 532 q 528 499 494 532 q 561 417 561 465 q 528 336 561 369 q 446 303 494 303 z "},"Ł":{"ha":708,"x_min":-86,"x_max":593,"o":"m 593 447 q -56 344 404 408 l -72 471 q 569 586 136 500 l 593 447 m 174 194 q 543 142 318 164 l 483 -51 q 210 -19 293 -35 q 81 6 128 -4 l -86 157 q 413 957 83 510 l 556 813 q 174 194 374 563 z "},"ł":{"ha":646,"x_min":-87,"x_max":736,"o":"m 354 976 q 196 935 279 964 l 136 1021 q 381 1125 268 1100 q 736 882 572 1021 l 676 764 q 354 976 524 889 m -87 122 q 76 503 -42 286 q 347 910 197 728 l 503 804 q 250 435 365 635 q 113 138 149 257 q 511 244 308 153 q 653 322 583 276 l 682 182 q 239 -15 476 39 q 85 -37 160 -33 l -87 122 z "},"Ń":{"ha":1010,"x_min":-97,"x_max":1094,"o":"m -97 107 q 132 558 -18 297 q 407 978 267 794 l 544 843 q 569 356 547 611 q 904 924 718 668 l 1046 793 q 611 -14 818 475 l 426 -51 q 368 574 382 276 q 64 -40 182 261 l -97 107 m 1094 1124 q 699 983 904 1038 l 644 1118 q 908 1228 839 1194 q 1024 1289 976 1263 l 1094 1124 z "},"ń":{"ha":874,"x_min":-112,"x_max":915,"o":"m 271 483 q 558 672 410 593 l 726 540 q 565 185 681 343 q 881 322 704 232 l 910 182 q 736 86 853 144 q 460 -37 536 -12 l 288 85 q 427 283 371 185 q 500 454 483 381 q 161 260 322 371 q 53 -37 97 107 l -112 69 q 35 429 -65 229 q 224 732 125 608 l 364 631 q 271 483 315 565 m 915 1004 q 588 749 792 889 l 483 856 q 781 1135 635 972 l 915 1004 z "},"Œ":{"ha":1321,"x_min":-25,"x_max":1315,"o":"m 528 71 q 181 -72 388 -37 l -25 117 q 326 806 15 544 q 581 965 435 897 q 744 865 674 915 l 781 943 q 1315 796 1058 904 l 1240 619 q 906 724 1113 672 l 846 547 q 1114 489 972 514 l 1053 318 l 897 351 q 764 388 808 372 q 664 196 728 325 q 1092 128 879 140 l 1029 -50 q 586 18 817 -39 l 528 71 m 824 553 q 568 746 690 671 q 319 499 429 672 q 189 133 206 321 q 294 160 242 142 q 404 228 347 179 q 661 601 529 335 q 824 553 699 589 z "},"œ":{"ha":1153,"x_min":-47,"x_max":1190,"o":"m 401 86 q 150 -37 286 -1 l -47 128 q 6 392 -47 261 q 225 657 72 556 q 454 744 331 728 l 606 614 q 821 738 703 699 l 1056 543 q 924 333 1021 399 q 692 268 826 268 q 576 278 614 268 q 549 143 554 224 q 1015 250 789 157 q 1160 322 1092 281 l 1190 182 q 889 38 1061 100 q 536 -37 704 -29 l 401 86 m 635 403 q 781 447 715 403 q 857 594 857 500 q 726 510 786 561 q 635 403 667 460 m 139 151 q 403 347 297 188 q 467 478 447 415 q 488 578 486 540 q 274 458 375 563 q 139 151 147 329 z "},"Ŕ":{"ha":942,"x_min":-92,"x_max":1054,"o":"m 469 296 q 669 39 553 163 l 485 -81 q 239 314 357 85 q 65 -40 143 149 l -92 104 q 75 431 1 310 q 324 782 194 629 q 150 799 228 799 l 210 964 q 664 896 471 956 q 810 842 736 874 l 918 603 q 469 296 776 415 m 294 407 q 631 589 483 479 q 717 663 681 625 q 367 774 585 732 l 486 676 q 294 407 375 535 m 1054 1124 q 658 983 864 1038 l 604 1118 q 867 1228 799 1194 q 983 1289 936 1263 l 1054 1124 z "},"Ŗ":{"ha":942,"x_min":-92,"x_max":918,"o":"m 469 296 q 669 39 553 163 l 485 -81 q 239 314 357 85 q 65 -40 143 149 l -92 104 q 75 431 1 310 q 324 782 194 629 q 150 799 228 799 l 210 964 q 664 896 471 956 q 810 842 736 874 l 918 603 q 469 296 776 415 m 294 407 q 631 589 483 479 q 717 663 681 625 q 367 774 585 732 l 486 676 q 294 407 375 535 m 24 -332 q 194 -10 108 -214 l 364 -111 q 160 -407 275 -275 l 24 -332 z "},"ŗ":{"ha":811,"x_min":-132,"x_max":849,"o":"m 53 622 q 219 810 119 713 l 349 710 q 322 617 333 646 q 581 656 501 636 q 718 690 660 675 l 757 525 q 638 496 700 508 q 478 175 542 344 q 818 322 708 254 l 849 182 q 514 11 721 99 q 386 -37 447 -17 l 239 110 q 432 467 329 317 q 260 456 335 458 q 140 247 238 414 l 38 182 l -94 260 q 61 435 21 385 q 131 521 101 485 q 53 622 90 565 m -132 -269 q 39 53 -47 -151 l 208 -49 q 4 -344 119 -212 l -132 -269 z "},"Ř":{"ha":942,"x_min":-92,"x_max":1067,"o":"m 469 296 q 669 39 553 163 l 485 -81 q 239 314 357 85 q 65 -40 143 149 l -92 104 q 75 431 1 310 q 324 782 194 629 q 150 799 228 799 l 210 964 q 664 896 471 956 q 810 842 736 874 l 918 603 q 469 296 776 415 m 294 407 q 631 589 483 479 q 717 663 681 625 q 367 774 585 732 l 486 676 q 294 407 375 535 m 732 1082 q 1000 1181 881 1124 l 1067 1058 q 869 963 940 989 q 746 921 797 938 l 581 1006 q 509 1178 529 1110 q 476 1293 489 1246 l 614 1328 q 732 1082 675 1179 z "},"ř":{"ha":811,"x_min":-94,"x_max":867,"o":"m 53 622 q 219 810 119 713 l 349 710 q 322 617 333 646 q 581 656 501 636 q 718 690 660 675 l 757 525 q 638 496 700 508 q 478 175 542 344 q 818 322 708 254 l 849 182 q 514 11 721 99 q 386 -37 447 -17 l 239 110 q 432 467 329 317 q 260 456 335 458 q 140 247 238 414 l 38 182 l -94 260 q 61 435 21 385 q 131 521 101 485 q 53 622 90 565 m 867 921 q 546 771 725 843 l 381 856 q 314 1156 340 1008 l 451 1190 q 535 936 493 1032 q 714 1001 668 981 q 800 1043 760 1022 l 867 921 z "},"Ÿ":{"ha":786,"x_min":18,"x_max":921,"o":"m 340 490 q 726 921 560 682 l 882 772 q 340 272 624 444 q 190 -57 264 154 l 18 92 q 102 284 76 238 q 156 375 128 331 q 207 1015 124 653 l 393 844 q 340 490 346 660 m 376 1096 q 344 1174 344 1128 q 377 1252 344 1219 q 456 1285 410 1285 q 533 1252 501 1285 q 565 1174 565 1219 q 533 1096 565 1128 q 456 1064 501 1064 q 376 1096 410 1064 m 733 963 q 701 1040 701 994 q 733 1118 701 1086 q 811 1150 765 1150 q 889 1118 857 1150 q 921 1040 921 1086 q 889 963 921 994 q 811 931 857 931 q 733 963 765 931 z "},"ȷ":{"ha":461,"x_min":-283,"x_max":497,"o":"m 35 11 q -122 -408 -43 -157 l -283 -307 q 158 615 -112 222 q 235 719 199 674 l 372 618 q 115 172 206 389 q 303 242 218 203 q 468 322 389 282 l 497 182 q 194 22 372 100 q 72 -25 133 -4 l 35 11 z "},"ˆ":{"ha":493,"x_min":99,"x_max":651,"o":"m 429 938 q 165 831 268 883 l 99 954 q 419 1104 254 1039 l 585 1019 q 633 823 622 881 q 651 719 643 765 l 514 685 q 429 938 474 836 z "},"ˇ":{"ha":493,"x_min":99,"x_max":651,"o":"m 651 921 q 331 771 510 843 l 165 856 q 99 1156 125 1008 l 236 1190 q 319 936 278 1032 q 499 1001 453 981 q 585 1043 544 1022 l 651 921 z "},"˚":{"ha":493,"x_min":129,"x_max":454,"o":"m 292 771 q 258 771 292 771 q 176 818 224 771 q 129 934 129 865 q 176 1049 129 1003 q 293 1096 222 1096 q 407 1049 360 1096 q 454 932 454 1001 q 407 818 454 865 q 292 771 360 771 m 225 933 q 225 919 225 933 q 244 887 225 906 q 291 868 264 868 q 337 887 318 868 q 356 933 356 906 q 337 979 356 960 q 291 999 318 999 q 244 979 264 999 q 225 933 225 960 z "},"˜":{"ha":493,"x_min":122,"x_max":679,"o":"m 679 763 q 485 729 571 729 q 421 763 451 739 q 360 815 390 788 q 303 865 331 842 q 249 893 275 888 l 136 885 l 122 1017 q 234 1042 174 1033 q 314 1050 294 1050 q 378 1015 347 1040 q 440 963 410 990 q 497 913 469 936 q 551 885 525 890 l 663 893 l 679 763 z "},"–":{"ha":957,"x_min":56,"x_max":775,"o":"m 718 247 q 56 425 353 364 l 111 585 q 775 406 411 522 l 718 247 z "},"—":{"ha":1274,"x_min":65,"x_max":1072,"o":"m 1021 169 q 65 415 547 335 l 115 578 q 1072 331 557 497 l 1021 169 z "},"‘":{"ha":394,"x_min":113,"x_max":490,"o":"m 490 931 q 286 571 378 761 l 113 681 q 357 1014 224 850 l 490 931 z "},"’":{"ha":401,"x_min":99,"x_max":476,"o":"m 476 907 q 232 574 365 738 l 99 657 q 303 1017 211 828 l 476 907 z "},"‚":{"ha":490,"x_min":-117,"x_max":261,"o":"m -117 -218 q 88 142 -4 -47 l 261 32 q 17 -301 150 -137 l -117 -218 z "},"“":{"ha":732,"x_min":113,"x_max":828,"o":"m 490 931 q 286 571 378 761 l 113 681 q 357 1014 224 850 l 490 931 m 828 931 q 624 571 715 761 l 450 681 q 694 1014 561 850 l 828 931 z "},"”":{"ha":739,"x_min":99,"x_max":814,"o":"m 476 907 q 232 574 365 738 l 99 657 q 303 1017 211 828 l 476 907 m 814 907 q 569 574 703 738 l 436 657 q 640 1017 549 828 l 814 907 z "},"„":{"ha":828,"x_min":-117,"x_max":599,"o":"m -117 -218 q 88 142 -4 -47 l 261 32 q 17 -301 150 -137 l -117 -218 m 221 -218 q 425 142 333 -47 l 599 32 q 354 -301 488 -137 l 221 -218 z "},"•":{"ha":528,"x_min":61,"x_max":389,"o":"m 108 318 q 61 435 61 365 q 108 551 61 504 q 224 599 156 599 q 342 551 294 599 q 389 435 389 504 q 342 318 389 365 q 225 271 294 271 q 108 318 156 271 z "},"…":{"ha":1258,"x_min":0,"x_max":1008,"o":"m 0 13 q 0 41 0 13 q 38 106 0 68 q 129 143 75 143 q 221 106 183 143 q 258 14 258 68 q 179 -106 258 -69 q 38 -78 101 -139 q 0 13 0 -42 m 375 13 q 375 41 375 13 q 413 106 375 68 q 504 143 450 143 q 596 106 558 143 q 633 14 633 68 q 554 -106 633 -69 q 413 -78 476 -139 q 375 13 375 -42 m 750 13 q 750 41 750 13 q 788 106 750 68 q 879 143 825 143 q 971 106 933 143 q 1008 14 1008 68 q 929 -106 1008 -69 q 788 -78 851 -139 q 750 13 750 -42 z "},"‹":{"ha":635,"x_min":89,"x_max":543,"o":"m 308 136 q 89 439 211 246 l 168 578 q 474 713 297 654 l 543 592 q 281 449 378 511 q 417 218 342 332 l 308 136 z "},"›":{"ha":685,"x_min":88,"x_max":543,"o":"m 322 700 q 543 407 449 557 l 464 268 q 157 124 315 182 l 88 244 q 349 396 242 322 q 215 618 311 468 l 322 700 z "},"€":{"ha":915,"x_min":43,"x_max":892,"o":"m 43 126 q 146 451 78 308 q 44 506 76 489 l 97 593 q 196 544 135 578 l 231 597 l 135 647 l 188 735 q 297 681 224 718 q 631 926 429 832 l 892 751 q 833 598 865 665 q 783 506 800 531 l 621 585 q 692 763 667 665 q 463 582 571 700 q 597 489 485 568 l 538 403 q 394 499 458 458 l 360 447 q 507 346 451 388 l 447 260 l 385 303 q 310 353 350 328 q 249 146 261 250 q 604 250 407 165 l 660 99 q 224 -32 458 -8 l 43 126 z "},"™":{"ha":1344,"x_min":144,"x_max":1310,"o":"m 144 581 q 238 771 189 692 q 335 915 288 850 q 208 943 274 931 l 275 1064 q 658 969 444 1040 l 599 833 q 375 904 456 883 l 453 839 q 303 583 364 719 q 258 478 282 536 l 144 581 m 932 693 q 1172 1010 1054 838 l 1310 893 q 1211 584 1246 671 q 1144 424 1176 497 l 1032 515 q 1135 765 1099 658 q 889 457 1021 617 l 788 543 q 846 835 815 710 q 651 479 750 690 l 543 579 q 850 1053 672 843 l 992 928 q 932 693 953 804 z "},"−":{"ha":821,"x_min":64,"x_max":653,"o":"m 589 251 q 64 431 321 367 l 128 589 q 653 406 394 519 l 589 251 z "},"":{"ha":493,"x_min":-76,"x_max":264,"o":"m -76 -328 q 94 -6 8 -210 l 264 -107 q 60 -403 175 -271 l -76 -328 z "}}}
